<svg xmlns="http://www.w3.org/2000/svg" xmlns:xlink="http://www.w3.org/1999/xlink" width="250" zoomAndPan="magnify" viewBox="0 0 187.5 74.999997" height="100" preserveAspectRatio="xMidYMid meet" version="1.0"><defs><g/><clipPath id="198d720c97"><path d="M 0 7 L 73 7 L 73 59 L 0 59 Z M 0 7 " clip-rule="nonzero"/></clipPath><clipPath id="07c7a625a4"><path d="M 3.273438 -57.71875 L 85.007812 38.46875 L -11.183594 120.203125 L -92.914062 24.011719 Z M 3.273438 -57.71875 " clip-rule="nonzero"/></clipPath><clipPath id="cd258e3bc1"><path d="M 29.96875 -26.304688 L 85.007812 38.46875 L 17.175781 96.109375 L -37.863281 31.332031 Z M 29.96875 -26.304688 " clip-rule="nonzero"/></clipPath><clipPath id="0a3d651f8a"><path d="M 3.277344 -57.714844 L 85.011719 38.472656 L -11.179688 120.207031 L -92.910156 24.015625 Z M 3.277344 -57.714844 " clip-rule="nonzero"/></clipPath></defs><g clip-path="url(#198d720c97)"><g clip-path="url(#07c7a625a4)"><g clip-path="url(#cd258e3bc1)"><g clip-path="url(#0a3d651f8a)"><path fill="#040606" d="M 67.578125 22.753906 L 53.894531 21.640625 C 50.800781 21.390625 48.085938 23.695312 47.824219 26.796875 L 46.429688 43.992188 C 46.175781 47.085938 48.492188 49.8125 51.585938 50.0625 L 65.265625 51.175781 C 56.808594 58.015625 44.410156 56.710938 37.566406 48.25 C 36.527344 46.976562 35.664062 45.585938 34.972656 44.085938 C 33.703125 41.316406 31.027344 39.449219 27.996094 39.203125 L -43.464844 33.394531 C -46.269531 33.175781 -49.003906 34.351562 -50.753906 36.550781 C -56.359375 43.617188 -66.628906 44.785156 -73.6875 39.1875 C -80.742188 33.574219 -81.921875 23.3125 -76.308594 16.257812 C -70.703125 9.191406 -60.441406 8.015625 -53.382812 13.628906 C -51.714844 14.945312 -50.320312 16.585938 -49.285156 18.453125 C -47.910156 20.902344 -45.414062 22.515625 -42.597656 22.746094 L 28.863281 28.550781 C 31.894531 28.796875 34.835938 27.386719 36.542969 24.863281 C 42.621094 15.832031 54.863281 13.449219 63.878906 19.523438 C 65.242188 20.449219 66.480469 21.527344 67.578125 22.753906 Z M 70.492188 21.839844 C 62.746094 12.109375 48.578125 10.496094 38.847656 18.242188 C 37.058594 19.675781 35.488281 21.375 34.195312 23.28125 C 33.066406 24.964844 31.113281 25.902344 29.089844 25.738281 L -42.371094 19.929688 C -44.234375 19.777344 -45.910156 18.710938 -46.824219 17.070312 C -51.976562 7.84375 -63.632812 4.53125 -72.871094 9.6875 C -82.101562 14.839844 -85.402344 26.503906 -80.253906 35.734375 C -75.097656 44.972656 -63.429688 48.277344 -54.207031 43.117188 C -52.027344 41.902344 -50.101562 40.265625 -48.550781 38.3125 C -47.382812 36.839844 -45.558594 36.058594 -43.691406 36.210938 L 27.769531 42.015625 C 29.789062 42.179688 31.566406 43.421875 32.410156 45.265625 C 37.605469 56.570312 50.984375 61.515625 62.273438 56.324219 C 65.054688 55.046875 67.542969 53.222656 69.597656 50.953125 C 70.105469 50.378906 70.058594 49.488281 69.492188 48.972656 C 69.257812 48.769531 68.964844 48.640625 68.652344 48.617188 L 51.8125 47.25 C 50.273438 47.125 49.125 45.769531 49.242188 44.222656 L 50.640625 27.027344 C 50.773438 25.480469 52.125 24.328125 53.664062 24.453125 L 70.511719 25.832031 C 71.28125 25.886719 71.960938 25.308594 72.023438 24.546875 C 72.050781 24.234375 71.972656 23.921875 71.796875 23.667969 C 71.402344 23.03125 70.960938 22.425781 70.492188 21.839844 " fill-opacity="1" fill-rule="nonzero"/></g></g></g></g><g fill="#000000" fill-opacity="1"><g transform="translate(71.949976, 32.497962)"><g><path d="M 17.023438 -12.96875 C 17.023438 -14.753906 15.5625 -16.210938 13.78125 -16.210938 L 0.8125 -16.210938 L 0.8125 0 L 4.054688 0 L 4.054688 -6.484375 L 5.957031 -6.484375 L 11.957031 -0.488281 C 12.28125 -0.164062 12.683594 0 13.132812 0 L 17.023438 0 L 17.023438 -3.242188 L 13.78125 -3.242188 L 10.539062 -6.484375 L 13.78125 -6.484375 C 15.5625 -6.484375 17.023438 -7.945312 17.023438 -9.726562 Z M 13.78125 -12.96875 L 13.78125 -9.726562 L 4.054688 -9.726562 L 4.054688 -12.96875 Z M 13.78125 -12.96875 "/></g></g></g><g fill="#000000" fill-opacity="1"><g transform="translate(89.782016, 32.497962)"><g><path d="M 4.054688 -16.210938 C 2.269531 -16.210938 0.8125 -14.753906 0.8125 -12.96875 L 0.8125 0 L 4.054688 0 L 4.054688 -6.484375 L 13.78125 -6.484375 L 13.78125 0 L 17.023438 0 L 17.023438 -12.96875 C 17.023438 -14.753906 15.5625 -16.210938 13.78125 -16.210938 Z M 4.054688 -12.96875 L 13.78125 -12.96875 L 13.78125 -9.726562 L 4.054688 -9.726562 Z M 4.054688 -12.96875 "/></g></g></g><g fill="#000000" fill-opacity="1"><g transform="translate(107.614056, 32.497962)"><g><path d="M 17.023438 -16.210938 L 4.054688 -16.210938 C 2.269531 -16.210938 0.8125 -14.753906 0.8125 -12.96875 L 0.8125 0 L 4.054688 0 L 4.054688 -6.484375 L 17.023438 -6.484375 L 17.023438 -9.726562 L 4.054688 -9.726562 L 4.054688 -12.96875 L 17.023438 -12.96875 Z M 17.023438 -16.210938 "/></g></g></g><g fill="#000000" fill-opacity="1"><g transform="translate(125.446096, 32.497962)"><g><path d="M 17.023438 -16.210938 L 0.8125 -16.210938 L 0.8125 -12.96875 L 7.296875 -12.96875 L 7.296875 0 L 10.539062 0 L 10.539062 -12.96875 L 17.023438 -12.96875 Z M 17.023438 -16.210938 "/></g></g></g><g fill="#000000" fill-opacity="1"><g transform="translate(68.897645, 56.563474)"><g><path d="M 13.78125 0 C 15.582031 0 17.023438 -1.480469 17.023438 -3.242188 L 17.023438 -12.96875 C 17.023438 -14.753906 15.5625 -16.210938 13.78125 -16.210938 L 4.054688 -16.210938 C 2.269531 -16.210938 0.8125 -14.753906 0.8125 -12.96875 L 0.8125 -3.242188 C 0.8125 -1.460938 2.269531 0 4.054688 0 Z M 4.054688 -12.96875 L 13.78125 -12.96875 L 13.78125 -3.242188 L 4.054688 -3.242188 Z M 4.054688 -12.96875 "/></g></g></g><g fill="#000000" fill-opacity="1"><g transform="translate(86.729685, 56.563474)"><g><path d="M 4.054688 0 L 4.054688 -10.679688 L 14.246094 -0.488281 C 14.550781 -0.183594 14.957031 0 15.402344 0 C 16.292969 0 17.023438 -0.730469 17.023438 -1.621094 L 17.023438 -16.210938 L 13.78125 -16.210938 L 13.78125 -5.53125 L 3.585938 -15.726562 C 3.28125 -16.027344 2.878906 -16.210938 2.433594 -16.210938 C 1.539062 -16.210938 0.8125 -15.480469 0.8125 -14.589844 L 0.8125 0 Z M 4.054688 0 "/></g></g></g><g fill="#000000" fill-opacity="1"><g transform="translate(104.561725, 56.563474)"><g><path d="M 4.054688 0 L 4.054688 -10.679688 L 14.246094 -0.488281 C 14.550781 -0.183594 14.957031 0 15.402344 0 C 16.292969 0 17.023438 -0.730469 17.023438 -1.621094 L 17.023438 -16.210938 L 13.78125 -16.210938 L 13.78125 -5.53125 L 3.585938 -15.726562 C 3.28125 -16.027344 2.878906 -16.210938 2.433594 -16.210938 C 1.539062 -16.210938 0.8125 -15.480469 0.8125 -14.589844 L 0.8125 0 Z M 4.054688 0 "/></g></g></g><g fill="#000000" fill-opacity="1"><g transform="translate(122.393765, 56.563474)"><g><path d="M 17.023438 -16.210938 L 4.054688 -16.210938 C 2.269531 -16.210938 0.8125 -14.753906 0.8125 -12.96875 L 0.8125 -3.242188 C 0.8125 -1.460938 2.269531 0 4.054688 0 L 17.023438 0 L 17.023438 -3.242188 L 4.054688 -3.242188 L 4.054688 -6.484375 L 17.023438 -6.484375 L 17.023438 -9.726562 L 4.054688 -9.726562 L 4.054688 -12.96875 L 17.023438 -12.96875 Z M 17.023438 -16.210938 "/></g></g></g><g fill="#000000" fill-opacity="1"><g transform="translate(140.225806, 56.563474)"><g><path d="M 17.023438 0 L 17.023438 -3.242188 L 4.054688 -3.242188 L 4.054688 -12.96875 L 17.023438 -12.96875 L 17.023438 -16.210938 L 4.054688 -16.210938 C 2.269531 -16.210938 0.8125 -14.753906 0.8125 -12.96875 L 0.8125 -3.242188 C 0.8125 -1.460938 2.269531 0 4.054688 0 Z M 17.023438 0 "/></g></g></g><g fill="#000000" fill-opacity="1"><g transform="translate(158.057846, 56.563474)"><g><path d="M 17.023438 -16.210938 L 0.8125 -16.210938 L 0.8125 -12.96875 L 7.296875 -12.96875 L 7.296875 0 L 10.539062 0 L 10.539062 -12.96875 L 17.023438 -12.96875 Z M 17.023438 -16.210938 "/></g></g></g></svg>