<svg xmlns="http://www.w3.org/2000/svg" xmlns:xlink="http://www.w3.org/1999/xlink" width="250" zoomAndPan="magnify" viewBox="0 0 187.5 74.999997" height="100" preserveAspectRatio="xMidYMid meet" version="1.0"><defs><g/><clipPath id="66f1cd43f1"><path d="M 0 7 L 73 7 L 73 59 L 0 59 Z M 0 7 " clip-rule="nonzero"/></clipPath><clipPath id="2abc74e9fb"><path d="M 3.273438 -57.71875 L 85.007812 38.46875 L -11.183594 120.203125 L -92.914062 24.011719 Z M 3.273438 -57.71875 " clip-rule="nonzero"/></clipPath><clipPath id="e76905b5f2"><path d="M 29.96875 -26.304688 L 85.007812 38.46875 L 17.175781 96.109375 L -37.863281 31.332031 Z M 29.96875 -26.304688 " clip-rule="nonzero"/></clipPath><clipPath id="5edcbe80fa"><path d="M 3.277344 -57.714844 L 85.011719 38.472656 L -11.179688 120.207031 L -92.910156 24.015625 Z M 3.277344 -57.714844 " clip-rule="nonzero"/></clipPath><clipPath id="eefc8d6852"><path d="M 0 7 L 72 7 L 72 58 L 0 58 Z M 0 7 " clip-rule="nonzero"/></clipPath><clipPath id="0e160af10c"><path d="M 5.890625 -54.914062 L 84.292969 38.859375 L -9.484375 117.261719 L -87.886719 23.488281 Z M 5.890625 -54.914062 " clip-rule="nonzero"/></clipPath><clipPath id="6889068c31"><path d="M 20.914062 -36.949219 L 84.292969 38.859375 L 11.683594 99.566406 L -51.695312 23.757812 Z M 20.914062 -36.949219 " clip-rule="nonzero"/></clipPath><clipPath id="ff7513b92c"><path d="M 5.882812 -54.925781 L 84.285156 38.851562 L -9.492188 117.253906 L -87.894531 23.476562 Z M 5.882812 -54.925781 " clip-rule="nonzero"/></clipPath><clipPath id="fcecedbe47"><path d="M 0 23 L 25 23 L 25 38 L 0 38 Z M 0 23 " clip-rule="nonzero"/></clipPath><clipPath id="c9aedb54c7"><path d="M -14.414062 36.542969 L -12.976562 23.285156 L 25.382812 27.449219 L 23.945312 40.710938 Z M -14.414062 36.542969 " clip-rule="nonzero"/></clipPath><clipPath id="2f3c716ce2"><path d="M -8.4375 37.148438 C -11.722656 35.308594 -11.660156 34.445312 -11.871094 33.710938 C -12.105469 32.910156 -12.398438 32.039062 -12.605469 31.277344 C -12.816406 30.542969 -13.035156 29.875 -13.152344 29.152344 C -13.265625 28.429688 -13.472656 27.664062 -13.328125 26.9375 C -13.144531 26.117188 -12.613281 25.078125 -11.976562 24.566406 C -11.34375 24.085938 -10.292969 23.941406 -9.507812 23.835938 C -8.820312 23.75 -8.246094 23.808594 -7.542969 23.886719 C -6.652344 23.984375 -5.34375 24.125 -4.660156 24.363281 C -4.253906 24.503906 -3.902344 24.832031 -3.710938 24.851562 C -3.648438 24.859375 -3.578125 24.800781 -3.578125 24.800781 C -3.578125 24.800781 -3.382812 24.789062 -3.289062 24.800781 C -3.222656 24.808594 -3.027344 24.796875 -3.027344 24.796875 C -3.027344 24.796875 -1.578125 24.824219 -0.84375 24.871094 C -0.0429688 24.925781 0.816406 25.054688 1.582031 25.136719 C 2.347656 25.21875 3.046875 25.296875 3.78125 25.375 C 4.453125 25.449219 5.121094 25.519531 5.824219 25.597656 C 6.492188 25.667969 7.128906 25.738281 7.832031 25.816406 C 8.5625 25.925781 9.390625 26.015625 10.15625 26.097656 C 10.859375 26.175781 11.496094 26.246094 12.195312 26.351562 C 13.023438 26.441406 13.960938 26.449219 14.738281 26.695312 C 15.488281 26.9375 16.296875 27.21875 16.753906 27.75 C 17.210938 28.316406 16.976562 29.582031 17.445312 30.019531 C 17.828125 30.351562 18.519531 30.234375 19.121094 30.332031 C 19.820312 30.441406 20.8125 30.515625 21.296875 30.503906 C 21.550781 30.53125 21.714844 30.515625 21.847656 30.5 C 21.945312 30.476562 21.980469 30.449219 22.078125 30.425781 C 22.144531 30.433594 22.214844 30.378906 22.28125 30.351562 C 22.34375 30.359375 22.375 30.363281 22.410156 30.367188 C 22.441406 30.371094 22.476562 30.339844 22.507812 30.34375 C 22.570312 30.351562 22.667969 30.363281 22.761719 30.371094 C 22.828125 30.378906 22.925781 30.359375 22.988281 30.363281 C 23.023438 30.367188 23.050781 30.402344 23.082031 30.40625 C 23.144531 30.414062 23.175781 30.417969 23.210938 30.421875 C 23.273438 30.429688 23.363281 30.503906 23.425781 30.507812 C 23.484375 30.546875 23.582031 30.558594 23.640625 30.597656 C 23.675781 30.601562 23.703125 30.636719 23.730469 30.671875 C 23.761719 30.675781 23.792969 30.679688 23.855469 30.71875 C 23.882812 30.753906 23.941406 30.824219 24 30.863281 C 24.058594 30.933594 24.148438 30.976562 24.179688 31.011719 C 24.238281 31.050781 24.234375 31.082031 24.261719 31.117188 C 24.292969 31.152344 24.324219 31.15625 24.351562 31.191406 C 24.378906 31.257812 24.402344 31.324219 24.460938 31.394531 C 24.484375 31.464844 24.539062 31.535156 24.566406 31.601562 C 24.59375 31.636719 24.589844 31.667969 24.621094 31.703125 C 24.617188 31.734375 24.644531 31.769531 24.671875 31.804688 C 24.699219 31.875 24.6875 31.96875 24.710938 32.035156 C 24.707031 32.101562 24.757812 32.203125 24.75 32.265625 C 24.78125 32.300781 24.746094 32.332031 24.769531 32.398438 C 24.765625 32.429688 24.761719 32.460938 24.792969 32.496094 C 24.785156 32.5625 24.742188 32.652344 24.734375 32.714844 C 24.726562 32.8125 24.746094 32.910156 24.707031 32.972656 C 24.703125 33.003906 24.699219 33.035156 24.664062 33.0625 C 24.660156 33.097656 24.691406 33.132812 24.652344 33.191406 C 24.644531 33.253906 24.574219 33.3125 24.566406 33.375 C 24.523438 33.46875 24.480469 33.558594 24.480469 33.59375 C 24.441406 33.652344 24.40625 33.648438 24.371094 33.675781 C 24.371094 33.710938 24.363281 33.773438 24.328125 33.800781 C 24.292969 33.832031 24.222656 33.886719 24.148438 33.945312 C 24.109375 34.003906 24.070312 34.097656 24 34.121094 C 23.964844 34.148438 23.929688 34.179688 23.898438 34.175781 C 23.894531 34.207031 23.859375 34.234375 23.824219 34.261719 C 23.789062 34.292969 23.6875 34.34375 23.621094 34.371094 C 23.550781 34.394531 23.476562 34.484375 23.414062 34.476562 C 23.378906 34.503906 23.382812 34.472656 23.347656 34.503906 C 23.316406 34.5 23.28125 34.527344 23.179688 34.546875 C 23.046875 34.597656 22.683594 34.65625 22.492188 34.636719 C 22.398438 34.625 22.371094 34.589844 22.210938 34.574219 C 21.828125 34.53125 20.253906 34.746094 19.933594 34.746094 C 19.867188 34.738281 19.8125 34.667969 19.808594 34.699219 C 19.738281 34.753906 19.898438 35.0625 19.839844 35.285156 C 19.691406 35.785156 19.121094 36.882812 18.523438 37.300781 C 17.964844 37.726562 17.117188 37.792969 16.398438 37.878906 C 15.683594 37.929688 14.957031 37.753906 14.25 37.742188 C 13.476562 37.722656 12.765625 37.742188 11.960938 37.71875 C 11.121094 37.726562 10.117188 37.746094 9.285156 37.6875 C 8.515625 37.667969 7.144531 37.488281 7.144531 37.488281 C 7.144531 37.488281 6.976562 37.566406 6.910156 37.589844 C 6.804688 37.644531 6.640625 37.691406 6.640625 37.691406 C 6.640625 37.691406 6.472656 37.738281 6.378906 37.726562 C 6.277344 37.746094 6.117188 37.761719 6.117188 37.761719 C 6.117188 37.761719 5.925781 37.742188 5.828125 37.730469 C 5.734375 37.71875 5.574219 37.703125 5.574219 37.703125 C 5.574219 37.703125 5.386719 37.652344 5.320312 37.644531 C 5.230469 37.601562 5.042969 37.546875 5.042969 37.546875 C 5.046875 37.515625 4.890625 37.4375 4.832031 37.398438 C 4.742188 37.324219 4.589844 37.242188 4.589844 37.242188 C 4.589844 37.242188 4.476562 37.101562 4.421875 37.03125 C 4.363281 36.957031 4.246094 36.847656 4.246094 36.847656 C 4.246094 36.847656 4.195312 36.714844 4.136719 36.675781 C 4.109375 36.640625 4.039062 36.664062 3.941406 36.6875 C 3.617188 36.683594 2.476562 36.816406 1.695312 36.863281 C 0.886719 36.871094 -0.0390625 36.804688 -0.839844 36.75 C -1.609375 36.695312 -2.308594 36.589844 -3.011719 36.511719 C -3.648438 36.445312 -4.273438 36.246094 -4.855469 36.28125 C -5.382812 36.351562 -5.832031 36.625 -6.398438 36.789062 C -7.027344 36.949219 -8.4375 37.148438 -8.4375 37.148438 M -8.441406 29.46875 C -8.378906 28.894531 -8.347656 28.609375 -8.347656 28.609375 C -8.347656 28.609375 -8.324219 28.382812 -8.285156 28.324219 C -8.28125 28.292969 -8.246094 28.265625 -8.277344 28.261719 C -8.304688 28.191406 -8.804688 28.042969 -8.914062 28.160156 C -9.023438 28.277344 -8.652344 29.316406 -8.59375 29.386719 C -8.597656 29.417969 -8.597656 29.417969 -8.597656 29.417969 C -8.597656 29.417969 -8.441406 29.46875 -8.441406 29.46875 " clip-rule="nonzero"/></clipPath><clipPath id="561ac700ea"><path d="M 11 24 L 47 24 L 47 48 L 11 48 Z M 11 24 " clip-rule="nonzero"/></clipPath><clipPath id="73094aa995"><path d="M 9.832031 44.03125 L 12.328125 21.050781 L 48.183594 24.945312 L 45.6875 47.925781 Z M 9.832031 44.03125 " clip-rule="nonzero"/></clipPath><clipPath id="3e0f47d022"><path d="M 17.175781 32.1875 C 26.214844 32.167969 28.367188 32.273438 29.375 32.476562 C 29.820312 32.558594 30.039062 32.613281 30.308594 32.804688 C 30.636719 33.066406 31.066406 33.566406 31.179688 33.996094 C 31.292969 34.429688 31.226562 35.035156 31.023438 35.433594 C 30.847656 35.867188 30.457031 36.179688 29.976562 36.449219 C 29.253906 36.855469 28.207031 37 26.988281 37.222656 C 24.984375 37.550781 20.390625 37.957031 19.011719 37.871094 C 18.53125 37.851562 18.339844 37.832031 18.035156 37.667969 C 17.671875 37.4375 17.203125 36.996094 17.058594 36.5625 C 16.878906 36.125 16.882812 35.476562 17.023438 35.074219 C 17.125 34.730469 17.285156 34.457031 17.566406 34.230469 C 17.886719 33.972656 18.429688 33.710938 18.949219 33.703125 C 19.601562 33.644531 20.191406 34.128906 21.203125 34.332031 C 23.253906 34.75 30.40625 34.589844 30.640625 35.390625 C 30.761719 35.757812 29.179688 36.976562 28.96875 36.824219 C 28.699219 36.632812 30.792969 33.695312 30.09375 32.6875 C 28.730469 30.699219 14.277344 32.128906 13.863281 30.890625 C 13.691406 30.386719 15.699219 29.734375 15.804688 29.070312 C 15.898438 28.496094 14.671875 27.621094 14.871094 27.257812 C 15.078125 26.859375 16.347656 27.03125 17.476562 27.054688 C 19.410156 27.070312 22.804688 27.601562 25.53125 28.058594 C 28.316406 28.554688 32.042969 29.894531 33.972656 29.976562 C 34.9375 29.984375 35.339844 29.867188 36.175781 29.601562 C 37.511719 29.167969 39.800781 27.414062 40.992188 27.15625 C 41.621094 27 42.097656 27.050781 42.535156 27.195312 C 42.875 27.328125 43.140625 27.550781 43.371094 27.835938 C 43.601562 28.085938 43.761719 28.394531 43.816406 28.753906 C 43.898438 29.214844 43.789062 29.914062 43.585938 30.308594 C 43.421875 30.613281 43.300781 30.828125 42.855469 31.070312 C 41.320312 31.839844 33.238281 32.574219 30.925781 32.484375 C 29.925781 32.472656 29.578125 32.402344 28.867188 32.101562 C 27.941406 31.710938 26.195312 30.875 25.921875 30.101562 C 25.730469 29.5 26.1875 28.550781 26.691406 28.089844 C 27.199219 27.5625 28.148438 27.441406 29.070312 27.25 C 30.230469 26.988281 31.601562 27.136719 33.078125 26.910156 C 34.949219 26.628906 37.699219 25.378906 39.394531 25.5 C 40.582031 25.5625 41.761719 25.980469 42.371094 26.628906 C 42.925781 27.171875 43.089844 28.03125 43.195312 28.847656 C 43.289062 29.761719 43.097656 30.644531 42.796875 31.902344 C 42.230469 34.164062 40.714844 39.519531 39.304688 40.914062 C 38.582031 41.609375 37.847656 41.820312 36.949219 41.789062 C 35.789062 41.757812 34.105469 40.316406 32.898438 39.863281 C 32.03125 39.542969 30.554688 39.449219 30.519531 39.1875 C 30.515625 38.925781 32.074219 38.839844 32.453125 38.332031 C 32.867188 37.761719 32.316406 36.023438 32.761719 35.78125 C 33.175781 35.535156 34.257812 36.269531 34.894531 36.628906 C 35.503906 36.984375 35.976562 37.359375 36.476562 37.832031 C 36.996094 38.371094 37.476562 39.003906 37.941406 39.796875 C 38.535156 40.863281 39.949219 43.277344 39.613281 43.691406 C 39.359375 43.953125 38.199219 43.054688 37.574219 43.148438 C 36.921875 43.238281 36.304688 44.460938 35.742188 44.269531 C 34.566406 43.820312 33.25 36.933594 32.917969 34.929688 C 32.789062 34.042969 32.679688 33.546875 32.878906 32.921875 C 33.085938 32.203125 33.730469 31.304688 34.351562 30.921875 C 34.910156 30.5625 35.660156 30.480469 36.332031 30.523438 C 37.105469 30.542969 38.117188 30.71875 38.714844 31.167969 C 39.34375 31.625 39.652344 32.335938 40 33.308594 C 40.566406 34.917969 40.625 38.832031 41.066406 40.429688 C 41.265625 41.257812 41.96875 41.914062 41.738281 42.277344 C 41.496094 42.703125 39.625 42.980469 39.179688 42.644531 C 38.796875 42.3125 38.945312 41.519531 38.953125 40.585938 C 38.976562 38.554688 39.554688 33.550781 40.171875 30.84375 C 40.617188 28.824219 41.132812 26.71875 41.828125 25.699219 C 42.210938 25.125 42.601562 24.8125 43.101562 24.644531 C 43.574219 24.46875 44.242188 24.539062 44.679688 24.683594 C 45.019531 24.820312 45.316406 25.042969 45.511719 25.324219 C 45.792969 25.710938 45.949219 26.082031 46.027344 26.832031 C 46.265625 28.792969 44.78125 35.023438 44.976562 37.980469 C 45.117188 39.964844 46.238281 41.828125 46.152344 42.917969 C 46.085938 43.523438 45.917969 43.890625 45.625 44.214844 C 45.328125 44.570312 44.875 44.875 44.414062 44.953125 C 43.859375 45.023438 42.886719 44.757812 42.441406 44.386719 C 42.054688 44.085938 41.851562 43.578125 41.769531 43.152344 C 41.722656 42.695312 41.75 42.148438 42.019531 41.757812 C 42.328125 41.273438 43.164062 40.71875 43.722656 40.621094 C 44.183594 40.539062 44.714844 40.695312 45.078125 40.929688 C 45.472656 41.164062 45.84375 41.59375 45.996094 41.996094 C 46.144531 42.398438 46.175781 42.984375 46.070312 43.390625 C 45.925781 43.828125 45.617188 44.277344 45.265625 44.5625 C 44.914062 44.816406 44.378906 44.984375 43.925781 45 C 43.507812 44.984375 42.980469 44.796875 42.621094 44.535156 C 42.261719 44.269531 42.070312 43.957031 41.84375 43.382812 C 41.332031 42.136719 40.777344 39.523438 40.683594 37.125 C 40.550781 33.886719 41.183594 27.175781 41.863281 25.636719 C 42.078125 25.175781 42.3125 25.074219 42.625 24.882812 C 42.90625 24.6875 43.246094 24.527344 43.628906 24.539062 C 44.082031 24.523438 44.738281 24.722656 45.132812 24.960938 C 45.433594 25.152344 45.660156 25.46875 45.820312 25.777344 C 45.949219 26.082031 46.046875 26.351562 46.027344 26.832031 C 45.984375 27.828125 44.933594 29.488281 44.53125 31.414062 C 43.84375 34.46875 43.761719 41.171875 43.144531 43.589844 C 42.867188 44.625 42.792969 45.328125 42.195312 45.777344 C 41.527344 46.285156 39.984375 46.539062 39.214844 46.195312 C 38.472656 45.890625 38.058594 44.941406 37.636719 44.089844 C 37.078125 42.964844 36.699219 41.40625 36.4375 39.957031 C 36.117188 38.4375 35.671875 36.324219 35.929688 35.125 C 36.117188 34.308594 36.65625 33.203125 37.039062 33.246094 C 37.925781 33.375 39.785156 40.933594 40.140625 43.003906 C 40.296875 43.925781 40.5 44.464844 40.234375 45.113281 C 39.929688 45.824219 38.902344 46.96875 38.125 47.015625 C 37.21875 47.046875 35.683594 45.425781 35.035156 44.550781 C 34.558594 43.882812 34.574219 43.144531 34.257812 42.496094 C 33.9375 41.878906 33.59375 41.199219 33.058594 40.753906 C 32.558594 40.3125 31.820312 40.261719 31.253906 39.847656 C 30.535156 39.347656 29.421875 38.582031 29.214844 37.816406 C 29.027344 37.183594 29.171875 36.136719 29.671875 35.707031 C 30.316406 35.097656 32.472656 35.171875 33.519531 35.316406 C 34.316406 35.433594 35.066406 35.644531 35.46875 36.109375 C 35.867188 36.605469 35.625 38.222656 35.878906 38.25 C 36.332031 38.269531 37.289062 33.304688 38.15625 31.851562 C 38.703125 30.972656 40.074219 30.25 39.910156 29.976562 C 39.636719 29.527344 35.300781 31.121094 33.269531 31.382812 C 31.597656 31.621094 29.046875 32.25 28.621094 31.6875 C 28.34375 31.269531 29.738281 30.03125 29.65625 29.3125 C 29.59375 28.695312 28.351562 27.945312 28.511719 27.640625 C 28.753906 27.214844 31.152344 27.992188 32.832031 27.980469 C 35.222656 27.949219 39.792969 26.898438 41.488281 27.015625 C 42.191406 27.09375 42.628906 27.207031 42.988281 27.46875 C 43.289062 27.664062 43.519531 27.945312 43.648438 28.25 C 43.808594 28.558594 43.894531 28.925781 43.859375 29.273438 C 43.839844 29.726562 43.621094 30.28125 43.28125 30.730469 C 42.835938 31.261719 42.179688 31.675781 41.320312 32.128906 C 40.015625 32.859375 37.464844 34.066406 36.015625 34.328125 C 35.058594 34.546875 34.613281 34.46875 33.5625 34.351562 C 31.585938 34.105469 28.042969 32.882812 25.0625 32.363281 C 21.765625 31.8125 16.738281 31.75 14.636719 31.199219 C 13.632812 30.929688 13.039062 30.769531 12.546875 30.261719 C 12.046875 29.789062 11.476562 28.824219 11.636719 28.230469 C 11.84375 27.507812 13.019531 26.796875 14.34375 26.488281 C 17.09375 25.820312 24.996094 27.355469 28.214844 28.027344 C 29.980469 28.382812 31.234375 28.742188 32.246094 29.238281 C 32.980469 29.578125 33.597656 29.871094 33.988281 30.429688 C 34.402344 31.054688 34.566406 31.945312 34.53125 32.84375 C 34.523438 34.101562 33.921875 36.070312 33.414062 37.175781 C 33.039062 37.976562 32.679688 38.613281 32.117188 39.035156 C 31.585938 39.464844 31.054688 39.597656 30.171875 39.695312 C 28.28125 39.878906 23.402344 39.058594 21.316406 38.636719 C 20.117188 38.378906 19.238281 38.15625 18.535156 37.820312 C 18.007812 37.601562 17.546875 37.390625 17.296875 37.007812 C 17.019531 36.621094 16.890625 35.996094 16.90625 35.578125 C 16.910156 35.222656 17.042969 34.914062 17.234375 34.613281 C 17.496094 34.285156 17.855469 33.96875 18.457031 33.777344 C 19.667969 33.328125 22.765625 33.632812 24.695312 33.390625 C 26.367188 33.152344 28.414062 32.40625 29.375 32.476562 C 29.824219 32.527344 30.039062 32.613281 30.308594 32.804688 C 30.582031 32.964844 30.84375 33.21875 30.972656 33.523438 C 31.15625 33.898438 31.28125 34.558594 31.203125 34.96875 C 31.132812 35.316406 31.003906 35.625 30.75 35.855469 C 30.457031 36.179688 30.175781 36.40625 29.476562 36.585938 C 27.523438 37.054688 19.289062 36.515625 17.265625 36.132812 C 16.601562 35.996094 16.28125 35.992188 15.929688 35.664062 C 15.578125 35.304688 15.214844 34.492188 15.238281 33.976562 C 15.261719 33.496094 15.539062 33.007812 15.863281 32.6875 C 16.183594 32.402344 17.175781 32.1875 17.175781 32.1875 " clip-rule="nonzero"/></clipPath><clipPath id="47485f9b02"><path d="M 36 40 L 56 40 L 56 56 L 36 56 Z M 36 40 " clip-rule="nonzero"/></clipPath><clipPath id="8149823f65"><path d="M 35.363281 53.835938 L 36.886719 39.792969 L 56.402344 41.910156 L 54.878906 55.953125 Z M 35.363281 53.835938 " clip-rule="nonzero"/></clipPath><clipPath id="5f4bf9e6cb"><path d="M 41.261719 42.773438 C 41.007812 44.230469 41.539062 44.996094 42.050781 45.632812 C 42.648438 46.375 44.074219 47.207031 44.519531 47.839844 C 44.777344 48.15625 44.910156 48.398438 44.972656 48.726562 C 45.066406 49.058594 45.058594 49.414062 44.960938 49.726562 C 44.816406 50.160156 44.46875 50.703125 44.085938 50.953125 C 43.703125 51.203125 43.167969 51.371094 42.628906 51.28125 C 41.773438 51.152344 40.589844 50.152344 39.640625 49.40625 C 38.65625 48.652344 37.429688 47.457031 36.894531 46.75 C 36.640625 46.402344 36.507812 46.160156 36.414062 45.828125 C 36.351562 45.5 36.332031 45.109375 36.429688 44.796875 C 36.5 44.449219 36.664062 44.113281 36.886719 43.847656 C 37.136719 43.617188 37.453125 43.390625 37.757812 43.261719 C 38.0625 43.136719 38.453125 43.082031 38.800781 43.152344 C 39.121094 43.183594 39.4375 43.253906 39.761719 43.511719 C 40.300781 43.894531 40.832031 44.953125 41.484375 45.507812 C 42.070312 46.054688 42.671875 46.441406 43.40625 46.8125 C 44.167969 47.21875 44.851562 47.453125 45.976562 47.800781 C 47.878906 48.429688 52.609375 48.554688 54.015625 49.835938 C 54.898438 50.644531 55.339844 52.207031 55.121094 53.054688 C 54.910156 53.808594 53.90625 54.441406 53.125 54.773438 C 52.347656 55.109375 51.355469 55.035156 50.484375 55.035156 C 49.644531 55.042969 48.820312 54.921875 47.996094 54.765625 C 47.210938 54.585938 46.640625 54.457031 45.722656 54.003906 C 43.9375 53.195312 39.449219 50.546875 38.535156 49.480469 C 38.1875 49.085938 38.148438 48.855469 38.097656 48.464844 C 38.046875 48.007812 38.21875 47.316406 38.425781 46.917969 C 38.621094 46.585938 38.875 46.320312 39.214844 46.164062 C 39.628906 45.953125 40.195312 45.753906 40.792969 45.917969 C 41.890625 46.195312 43.507812 48.246094 44.933594 49.078125 C 46.277344 49.804688 48.667969 50.0625 49.082031 50.722656 C 49.304688 51.035156 48.910156 51.703125 49.035156 51.75 C 49.246094 51.867188 49.980469 50.464844 50.609375 50.304688 C 51.207031 50.144531 52.210938 50.414062 52.691406 50.757812 C 53.078125 51.058594 53.3125 51.566406 53.425781 52.03125 C 53.539062 52.464844 53.445312 53.035156 53.269531 53.46875 C 53.0625 53.863281 52.6875 54.339844 52.25 54.519531 C 51.710938 54.75 50.671875 54.796875 50.121094 54.511719 C 49.570312 54.226562 48.988281 53.355469 48.925781 52.738281 C 48.863281 52.117188 49.257812 51.160156 49.722656 50.757812 C 50.21875 50.359375 51.238281 50.179688 51.804688 50.308594 C 52.3125 50.394531 52.753906 50.765625 53.007812 51.117188 C 53.289062 51.5 53.445312 52.132812 53.46875 52.519531 C 53.503906 52.78125 53.546875 52.980469 53.355469 53.25 C 52.867188 53.875 50.375 55.152344 48.910156 55.253906 C 47.613281 55.335938 46.1875 54.472656 45.070312 54.0625 C 44.207031 53.710938 43.496094 53.40625 42.769531 52.972656 C 42.101562 52.578125 41.539062 52.128906 40.886719 51.574219 C 40.113281 50.972656 38.949219 50.105469 38.535156 49.480469 C 38.25 49.125 38.148438 48.855469 38.097656 48.464844 C 38.046875 48.007812 38.21875 47.316406 38.425781 46.917969 C 38.621094 46.585938 38.910156 46.324219 39.214844 46.164062 C 39.527344 45.972656 39.894531 45.882812 40.25 45.859375 C 40.605469 45.863281 40.828125 45.886719 41.320312 46.101562 C 42.589844 46.597656 45.804688 49.074219 47.742188 49.960938 C 49.1875 50.636719 51.359375 50.550781 51.726562 51.332031 C 52.015625 51.910156 51.613281 53.253906 50.894531 53.628906 C 49.597656 54.292969 44.640625 52.078125 42.484375 51.132812 C 41.007812 50.488281 39.941406 49.890625 38.933594 49.070312 C 37.984375 48.289062 36.992188 47.050781 36.617188 46.335938 C 36.402344 45.925781 36.332031 45.691406 36.339844 45.304688 C 36.390625 44.859375 36.621094 44.203125 36.886719 43.847656 C 37.109375 43.582031 37.453125 43.390625 37.757812 43.261719 C 38.0625 43.136719 38.390625 43.074219 38.800781 43.152344 C 39.402344 43.25 40.375 43.804688 40.96875 44.289062 C 41.5625 44.773438 41.804688 45.511719 42.355469 46.085938 C 42.964844 46.699219 44.09375 47.308594 44.519531 47.839844 C 44.777344 48.15625 44.910156 48.398438 44.972656 48.726562 C 45.066406 49.058594 45.058594 49.414062 44.960938 49.726562 C 44.890625 50.074219 44.699219 50.375 44.476562 50.640625 C 44.253906 50.875 43.945312 51.066406 43.640625 51.195312 C 43.339844 51.292969 42.945312 51.347656 42.628906 51.28125 C 42.3125 51.246094 42.035156 51.117188 41.703125 50.921875 C 41.125 50.566406 40.320312 49.964844 39.632812 49.179688 C 38.710938 48.144531 37.175781 46.234375 36.898438 44.945312 C 36.675781 44.015625 37.007812 43.019531 37.210938 42.332031 C 37.367188 41.800781 37.546875 41.335938 37.78125 40.972656 C 37.96875 40.703125 38.21875 40.503906 38.492188 40.34375 C 38.734375 40.207031 39.066406 40.113281 39.390625 40.117188 C 39.808594 40.128906 40.394531 40.355469 40.722656 40.617188 C 40.992188 40.808594 41.160156 41.050781 41.253906 41.382812 C 41.375 41.753906 41.261719 42.773438 41.261719 42.773438 " clip-rule="nonzero"/></clipPath><clipPath id="97d789a578"><path d="M 49 48 L 64 48 L 64 56 L 49 56 Z M 49 48 " clip-rule="nonzero"/></clipPath><clipPath id="1af5244de5"><path d="M 49.121094 54.207031 L 49.878906 47.234375 L 63.707031 48.738281 L 62.953125 55.707031 Z M 49.121094 54.207031 " clip-rule="nonzero"/></clipPath><clipPath id="10e72b7c21"><path d="M 51.921875 49.804688 C 58.828125 51.585938 59.402344 53.457031 59.074219 54.097656 C 58.789062 54.648438 57.652344 54.6875 56.773438 54.785156 C 55.59375 54.945312 53.652344 54.671875 52.542969 54.519531 C 51.84375 54.410156 51.234375 54.375 50.78125 54.070312 C 50.359375 53.796875 50.03125 53.277344 49.886719 52.808594 C 49.777344 52.347656 49.84375 51.707031 50.054688 51.277344 C 50.292969 50.851562 50.617188 50.53125 51.195312 50.273438 C 52.316406 49.75 55.15625 50.058594 56.933594 49.734375 C 58.480469 49.449219 60.179688 48.375 61.292969 48.496094 C 62.058594 48.582031 62.75 49.074219 63.085938 49.53125 C 63.398438 49.921875 63.503906 50.449219 63.453125 50.894531 C 63.359375 51.464844 62.84375 52.34375 62.328125 52.644531 C 61.78125 52.9375 60.773438 52.992188 60.226562 52.707031 C 59.707031 52.421875 59.152344 51.589844 59.019531 51.027344 C 58.941406 50.566406 59.066406 50 59.300781 49.636719 C 59.535156 49.242188 59.902344 48.832031 60.371094 48.6875 C 60.910156 48.488281 61.933594 48.566406 62.417969 48.847656 C 62.84375 49.085938 63.148438 49.539062 63.300781 49.941406 C 63.476562 50.378906 63.480469 50.960938 63.339844 51.367188 C 63.226562 51.804688 63.027344 52.171875 62.535156 52.539062 C 61.457031 53.257812 58.308594 54.015625 56.339844 54.316406 C 54.570312 54.542969 52.292969 54.714844 51.242188 54.3125 C 50.683594 54.089844 50.304688 53.726562 50.089844 53.316406 C 49.84375 52.902344 49.785156 52.25 49.871094 51.773438 C 49.984375 51.304688 50.332031 50.792969 50.75 50.515625 C 51.132812 50.234375 51.527344 50.179688 52.210938 50.125 C 53.90625 49.988281 59.746094 49.683594 60.9375 50.910156 C 61.6875 51.703125 61.65625 53.796875 61.128906 54.480469 C 60.710938 55.050781 59.554688 55.019531 58.613281 55.082031 C 57.441406 55.148438 55.964844 54.792969 54.636719 54.519531 C 53.25 54.238281 51.246094 53.957031 50.402344 53.414062 C 49.917969 53.105469 49.667969 52.753906 49.519531 52.316406 C 49.371094 51.914062 49.402344 51.335938 49.574219 50.9375 C 49.746094 50.535156 50.148438 50.09375 50.523438 49.910156 C 50.929688 49.726562 51.921875 49.804688 51.921875 49.804688 " clip-rule="nonzero"/></clipPath><clipPath id="47f06d6be7"><path d="M 32 18 L 66 18 L 66 54 L 32 54 Z M 32 18 " clip-rule="nonzero"/></clipPath><clipPath id="b03e4f3218"><path d="M 29.484375 50.585938 L 33.152344 16.796875 L 69.335938 20.722656 L 65.667969 54.511719 Z M 29.484375 50.585938 " clip-rule="nonzero"/></clipPath><clipPath id="851eb831d5"><path d="M 64.023438 53.085938 C 57.167969 53.503906 55.894531 53.363281 54.304688 53.128906 C 52.367188 52.851562 49.765625 52.441406 47.953125 51.890625 C 46.515625 51.476562 45.160156 50.875 44.179688 50.382812 C 43.476562 50.015625 42.988281 49.769531 42.484375 49.359375 C 41.984375 48.917969 41.484375 48.445312 41.164062 47.859375 C 40.839844 47.277344 40.496094 46.5625 40.574219 45.859375 C 40.660156 45.0625 41.1875 43.765625 41.84375 43.351562 C 42.402344 42.992188 43.269531 43.023438 44.113281 43.277344 C 45.457031 43.679688 47.96875 45.792969 48.753906 46.585938 C 49.101562 46.949219 49.273438 47.160156 49.398438 47.496094 C 49.527344 47.800781 49.578125 48.226562 49.539062 48.578125 C 49.5 48.925781 49.363281 49.300781 49.171875 49.601562 C 48.980469 49.871094 48.65625 50.160156 48.351562 50.320312 C 48.042969 50.480469 47.640625 50.597656 47.289062 50.589844 C 46.933594 50.585938 46.609375 50.582031 46.25 50.347656 C 45.671875 50.027344 44.933594 49.078125 44.492188 48.382812 C 44.082031 47.726562 43.847656 47.214844 43.628906 46.257812 C 43.207031 44.46875 43.117188 40.84375 43.15625 38.105469 C 43.203125 35.304688 43.734375 31.90625 43.980469 29.644531 C 44.152344 28.046875 44 25.902344 44.507812 25.667969 C 44.878906 25.511719 46.136719 26.425781 46.089844 26.839844 C 46.007812 27.605469 41.300781 29.0625 39.742188 29.441406 C 38.882812 29.636719 38.386719 29.746094 37.695312 29.574219 C 36.875 29.386719 35.523438 28.757812 35.15625 27.976562 C 34.816406 27.261719 35.085938 25.964844 35.566406 25.113281 C 36.199219 24.023438 37.871094 23.203125 39.125 22.339844 C 40.476562 21.484375 42.605469 19.714844 43.441406 20.03125 C 44.03125 20.257812 44.398438 21.621094 44.328125 22.289062 C 44.261719 22.898438 43.792969 23.332031 43.273438 23.953125 C 42.371094 25.144531 40.304688 27.242188 38.824219 28.375 C 37.597656 29.273438 36.058594 30.074219 35.160156 30.332031 C 34.722656 30.476562 34.429688 30.511719 34.054688 30.40625 C 33.582031 30.289062 32.949219 29.898438 32.632812 29.539062 C 32.371094 29.253906 32.25 28.886719 32.191406 28.554688 C 32.101562 28.191406 32.144531 27.777344 32.246094 27.433594 C 32.347656 27.089844 32.507812 26.816406 32.835938 26.464844 C 33.3125 25.933594 34.226562 25.261719 35.316406 24.734375 C 36.957031 23.878906 40.09375 22.636719 42.042969 22.527344 C 43.5 22.460938 45.476562 22.707031 45.917969 23.398438 C 46.273438 23.988281 45.84375 25.261719 45.175781 26.0625 C 44.136719 27.304688 40.734375 28.324219 38.753906 29.042969 C 37.210938 29.585938 35.59375 30.476562 34.4375 30.15625 C 33.460938 29.921875 32.261719 28.789062 32.09375 27.964844 C 31.945312 27.238281 32.410156 26.226562 33.230469 25.507812 C 34.804688 24.097656 40.859375 22.429688 42.648438 22.300781 C 43.332031 22.246094 43.675781 22.347656 44.070312 22.554688 C 44.464844 22.789062 44.871094 23.222656 45.050781 23.628906 C 45.230469 24.066406 45.265625 24.652344 45.152344 25.089844 C 45.070312 25.535156 44.789062 26.050781 44.40625 26.300781 C 43.917969 26.636719 42.921875 26.914062 42.296875 26.71875 C 41.699219 26.554688 40.972656 25.832031 40.78125 25.230469 C 40.617188 24.632812 40.859375 23.625 41.167969 23.140625 C 41.441406 22.71875 41.925781 22.417969 42.417969 22.339844 C 42.976562 22.242188 43.984375 22.480469 44.457031 22.855469 C 44.84375 23.152344 45.113281 23.667969 45.195312 24.09375 C 45.273438 24.554688 45.210938 25.128906 45.003906 25.558594 C 44.800781 25.957031 44.507812 26.246094 43.988281 26.578125 C 42.882812 27.265625 39.582031 28.519531 38.132812 28.523438 C 37.226562 28.523438 36.644531 28.234375 35.980469 27.839844 C 35.128906 27.359375 33.460938 26.371094 33.59375 25.738281 C 33.8125 24.601562 41.820312 22.179688 42.488281 22.867188 C 42.867188 23.230469 41.660156 24.550781 41.675781 25.292969 C 41.726562 26.011719 42.796875 26.867188 42.589844 27.296875 C 42.410156 27.761719 41.296875 27.898438 40.632812 28.054688 C 39.972656 28.207031 39.277344 28.066406 38.617188 28.222656 C 37.921875 28.371094 37.273438 28.6875 36.625 29.039062 C 35.9375 29.414062 35.226562 30.304688 34.632812 30.433594 C 34.234375 30.519531 33.863281 30.382812 33.523438 30.25 C 33.183594 30.085938 32.855469 29.855469 32.632812 29.539062 C 32.4375 29.261719 32.25 28.886719 32.191406 28.554688 C 32.101562 28.191406 32.144531 27.777344 32.246094 27.433594 C 32.347656 27.089844 32.511719 26.785156 32.835938 26.464844 C 33.378906 25.941406 34.605469 25.625 35.589844 24.890625 C 36.925781 23.875 38.714844 21.648438 39.914062 20.714844 C 40.625 20.113281 41.140625 19.816406 41.824219 19.46875 C 42.480469 19.089844 43.203125 18.683594 43.929688 18.503906 C 44.660156 18.324219 45.554688 18.101562 46.203125 18.394531 C 46.941406 18.703125 47.917969 19.839844 48.054688 20.628906 C 48.195312 21.421875 47.90625 22.324219 47.207031 23.085938 C 45.949219 24.566406 40.164062 27.648438 39.382812 27.109375 C 38.992188 26.84375 39.242188 25.417969 39.632812 24.8125 C 39.984375 24.238281 40.847656 24.011719 41.628906 23.644531 C 42.6875 23.113281 44.261719 22.285156 45.4375 22.152344 C 46.382812 22.0625 47.410156 22.140625 48.03125 22.628906 C 48.714844 23.1875 49 24.121094 49.179688 25.433594 C 49.609375 28.316406 47.832031 36.0625 47.675781 39.597656 C 47.613281 41.65625 47.417969 43.152344 47.78125 44.546875 C 48.078125 45.707031 49.128906 46.726562 49.398438 47.496094 C 49.546875 47.898438 49.613281 48.199219 49.539062 48.578125 C 49.460938 49.019531 49.132812 49.660156 48.800781 50.011719 C 48.546875 50.277344 48.175781 50.429688 47.84375 50.523438 C 47.511719 50.617188 47.214844 50.679688 46.746094 50.53125 C 45.652344 50.1875 41.660156 47.429688 41.796875 47.058594 C 41.855469 46.839844 43.488281 47.53125 44.007812 47.203125 C 44.527344 46.902344 44.453125 45.183594 44.882812 45.101562 C 45.277344 45.015625 45.839844 46.109375 46.40625 46.527344 C 46.941406 46.9375 47.367188 47.179688 48.171875 47.492188 C 49.566406 48.03125 52.542969 48.546875 54.445312 48.882812 C 55.996094 49.148438 57.164062 49.371094 58.675781 49.441406 C 60.445312 49.503906 63.191406 48.863281 64.351562 49.183594 C 64.945312 49.347656 65.273438 49.605469 65.523438 49.957031 C 65.777344 50.308594 65.945312 50.84375 65.898438 51.289062 C 65.882812 51.707031 65.628906 52.261719 65.308594 52.546875 C 64.988281 52.835938 64.023438 53.085938 64.023438 53.085938 " clip-rule="nonzero"/></clipPath><clipPath id="b1069a6f57"><path d="M 43 16 L 66 16 L 66 26 L 43 26 Z M 43 16 " clip-rule="nonzero"/></clipPath><clipPath id="30d4758065"><path d="M 42.554688 25.023438 L 43.589844 15.496094 L 66.082031 17.941406 L 65.046875 27.464844 Z M 42.554688 25.023438 " clip-rule="nonzero"/></clipPath><clipPath id="ed5118ead0"><path d="M 45.046875 21.59375 C 48.589844 18.6875 50.398438 18.980469 51.082031 19.507812 C 51.554688 19.914062 51.75 20.773438 51.714844 21.414062 C 51.675781 22.054688 51.152344 22.742188 50.730469 23.339844 C 50.308594 23.972656 49.832031 24.792969 49.210938 25.144531 C 48.660156 25.472656 47.933594 25.617188 47.332031 25.519531 C 46.695312 25.421875 45.933594 25.015625 45.566406 24.523438 C 45.148438 23.929688 45.03125 22.917969 45.082031 22.179688 C 45.125 21.472656 45.453125 20.25 45.679688 20.242188 C 45.910156 20.203125 46.699219 21.839844 46.511719 22.078125 C 46.292969 22.3125 44.570312 21.832031 44.007812 21.351562 C 43.503906 20.941406 43.105469 20.15625 43.175781 19.519531 C 43.261719 18.722656 44.269531 17.476562 45.027344 17.011719 C 45.6875 16.597656 46.363281 16.605469 47.304688 16.546875 C 48.863281 16.457031 51.960938 16.472656 53.582031 17.003906 C 54.800781 17.359375 56.09375 17.953125 56.460938 18.703125 C 56.8125 19.355469 56.625 20.464844 56.238281 21.066406 C 55.886719 21.609375 55.078125 21.941406 54.246094 22.175781 C 53.117188 22.472656 50.875 22.613281 49.996094 22.390625 C 49.558594 22.246094 49.320312 22.058594 49.09375 21.777344 C 48.777344 21.417969 48.527344 20.746094 48.480469 20.289062 C 48.457031 19.898438 48.5625 19.523438 48.726562 19.21875 C 48.886719 18.914062 49.042969 18.671875 49.429688 18.390625 C 50.332031 17.8125 52.972656 16.96875 54.628906 16.859375 C 56.121094 16.792969 57.96875 17.027344 58.933594 17.648438 C 59.71875 18.152344 60.460938 19.039062 60.441406 19.8125 C 60.480469 20.625 59.433594 21.960938 58.703125 22.433594 C 58.082031 22.816406 57.050781 22.800781 56.445312 22.734375 C 56.027344 22.722656 55.71875 22.59375 55.414062 22.429688 C 55.109375 22.234375 54.816406 21.976562 54.628906 21.632812 C 54.414062 21.222656 54.261719 20.53125 54.351562 20.023438 C 54.4375 19.515625 54.789062 18.941406 55.210938 18.632812 C 55.601562 18.320312 56.0625 18.207031 56.746094 18.152344 C 58.179688 18.050781 61.691406 18.398438 63.234375 19.050781 C 64.25 19.484375 65.21875 20.074219 65.527344 20.816406 C 65.785156 21.425781 65.578125 22.4375 65.261719 22.949219 C 65.023438 23.375 64.535156 23.710938 64.066406 23.855469 C 63.632812 24 63.050781 24 62.585938 23.820312 C 62.152344 23.675781 61.667969 23.367188 61.425781 22.921875 C 61.128906 22.40625 61.050781 21.332031 61.207031 20.769531 C 61.355469 20.300781 61.726562 19.855469 62.199219 19.648438 C 62.714844 19.382812 63.789062 19.273438 64.339844 19.558594 C 64.925781 19.816406 65.542969 20.65625 65.667969 21.285156 C 65.761719 21.90625 65.398438 22.902344 64.929688 23.335938 C 64.464844 23.765625 63.464844 24.046875 62.835938 23.914062 C 62.207031 23.75 61.578125 22.421875 61.214844 22.480469 C 60.953125 22.515625 61.019531 23.101562 60.648438 23.257812 C 59.832031 23.621094 56.414062 23.023438 55.414062 22.429688 C 54.835938 22.078125 54.5625 21.628906 54.390625 21.125 C 54.253906 20.625 54.292969 19.953125 54.503906 19.492188 C 54.714844 19.03125 55.21875 18.566406 55.660156 18.359375 C 56.101562 18.148438 56.902344 17.914062 57.074219 18.125 C 57.273438 18.371094 56.207031 19.578125 56.300781 20.203125 C 56.359375 20.855469 57.609375 21.796875 57.496094 21.976562 C 57.347656 22.125 56.234375 21.097656 55.398438 21.074219 C 54.210938 21.007812 52.152344 22.429688 51.078125 22.507812 C 50.429688 22.535156 49.929688 22.414062 49.503906 22.144531 C 49.082031 21.871094 48.691406 21.3125 48.554688 20.8125 C 48.441406 20.347656 48.515625 19.679688 48.726562 19.21875 C 48.933594 18.789062 49.464844 18.363281 49.90625 18.152344 C 50.316406 17.9375 50.789062 17.765625 51.191406 17.90625 C 51.65625 18.085938 52.1875 18.851562 52.476562 19.433594 C 52.800781 20.015625 53.265625 21.097656 52.96875 21.453125 C 52.527344 21.953125 49.984375 21.292969 48.910156 21.078125 C 48.152344 20.929688 47.339844 20.972656 47.035156 20.519531 C 46.671875 19.996094 46.753906 18.070312 47.136719 17.820312 C 47.511719 17.632812 48.910156 18.398438 49.230469 19.015625 C 49.574219 19.730469 49.382812 21.484375 48.84375 22.007812 C 48.339844 22.46875 46.410156 22.421875 46.359375 22.285156 C 46.339844 22.1875 47.796875 21.246094 48.195312 21.421875 C 48.597656 21.59375 48.957031 22.730469 48.800781 23.292969 C 48.671875 23.859375 47.765625 24.503906 47.222656 24.734375 C 46.789062 24.882812 46.234375 24.917969 45.839844 24.714844 C 45.34375 24.5 44.734375 23.882812 44.628906 23.355469 C 44.492188 22.824219 45.046875 21.59375 45.046875 21.59375 " clip-rule="nonzero"/></clipPath><clipPath id="955c43c194"><path d="M 40 15 L 69 15 L 69 28 L 40 28 Z M 40 15 " clip-rule="nonzero"/></clipPath><clipPath id="23113244c0"><path d="M 39.886719 26.820312 L 41.25 14.265625 L 68.886719 17.265625 L 67.523438 29.824219 Z M 39.886719 26.820312 " clip-rule="nonzero"/></clipPath><clipPath id="f2f0c9c529"><path d="M 65.984375 24.609375 C 56.882812 21.363281 52.269531 21.636719 50.761719 20.667969 C 50.042969 20.167969 49.660156 19.515625 49.636719 18.867188 C 49.621094 18.121094 50.359375 16.945312 51.027344 16.433594 C 51.660156 15.957031 52.574219 15.894531 53.519531 15.800781 C 54.722656 15.707031 56.574219 15.90625 57.710938 16.128906 C 58.503906 16.246094 59.070312 16.371094 59.75 16.671875 C 60.519531 17.015625 61.617188 17.585938 62.011719 18.113281 C 62.300781 18.433594 62.324219 18.792969 62.386719 19.121094 C 62.414062 19.480469 62.371094 19.863281 62.207031 20.199219 C 62 20.59375 61.6875 21.109375 61.082031 21.335938 C 59.863281 21.847656 56.238281 21.066406 54.605469 21.246094 C 53.628906 21.332031 53.226562 21.449219 52.289062 21.769531 C 50.613281 22.328125 47.246094 23.640625 45.714844 24.667969 C 44.738281 25.335938 44.269531 26.382812 43.554688 26.726562 C 43.074219 26.996094 42.613281 27.074219 42.167969 27.027344 C 41.6875 26.972656 41.160156 26.789062 40.84375 26.429688 C 40.472656 25.972656 40.160156 25 40.191406 24.421875 C 40.242188 23.945312 40.550781 23.460938 40.878906 23.140625 C 41.234375 22.828125 41.714844 22.554688 42.199219 22.542969 C 42.78125 22.542969 43.746094 22.875 44.144531 23.367188 C 44.546875 23.832031 44.761719 24.824219 44.601562 25.417969 C 44.40625 26.011719 43.652344 26.703125 43.113281 26.933594 C 42.671875 27.113281 42.09375 27.082031 41.695312 26.910156 C 41.257812 26.765625 40.777344 26.457031 40.53125 26.042969 C 40.261719 25.527344 40.136719 24.609375 40.335938 23.957031 C 40.582031 23.175781 41.273438 22.476562 42.15625 21.765625 C 43.472656 20.648438 45.933594 19.367188 48.027344 18.53125 C 50.152344 17.664062 52.5625 16.859375 54.808594 16.683594 C 56.960938 16.5 60.179688 16.847656 61.257812 17.351562 C 61.683594 17.558594 61.851562 17.804688 62.011719 18.113281 C 62.207031 18.390625 62.363281 18.761719 62.386719 19.121094 C 62.367188 19.601562 62.230469 20.265625 61.929688 20.652344 C 61.625 21.070312 61.203125 21.414062 60.574219 21.539062 C 59.394531 21.730469 56.527344 20.777344 55.21875 20.34375 C 54.441406 20.066406 53.707031 20.019531 53.433594 19.535156 C 53.144531 18.957031 53.246094 17.417969 53.875 16.96875 C 54.820312 16.296875 58 17.320312 60.128906 17.90625 C 62.539062 18.621094 66.40625 20.136719 67.527344 21.132812 C 67.996094 21.539062 68.183594 21.914062 68.265625 22.339844 C 68.320312 22.734375 68.191406 23.332031 67.988281 23.699219 C 67.863281 23.976562 67.644531 24.210938 67.335938 24.371094 C 66.992188 24.558594 65.984375 24.609375 65.984375 24.609375 " clip-rule="nonzero"/></clipPath><clipPath id="2625c2b932"><path d="M 35 15 L 61 15 L 61 55 L 35 55 Z M 35 15 " clip-rule="nonzero"/></clipPath><clipPath id="f4611ee7d9"><path d="M 33.917969 52.628906 L 38.128906 13.84375 L 62.167969 16.453125 L 57.953125 55.242188 Z M 33.917969 52.628906 " clip-rule="nonzero"/></clipPath><clipPath id="5f0e412c2b"><path d="M 52.621094 19.320312 C 49.203125 21.660156 48.769531 21.773438 48.300781 21.65625 C 47.800781 21.507812 47.085938 20.945312 46.882812 20.4375 C 46.683594 19.902344 46.703125 19.128906 47.085938 18.558594 C 47.632812 17.679688 49.628906 16.832031 50.972656 16.363281 C 52.214844 15.917969 53.4375 15.664062 54.78125 15.746094 C 56.417969 15.859375 59.054688 16.53125 60.011719 17.21875 C 60.519531 17.59375 60.757812 18.074219 60.90625 18.476562 C 61.03125 18.84375 60.992188 19.195312 60.921875 19.542969 C 60.824219 19.855469 60.65625 20.191406 60.433594 20.457031 C 60.214844 20.691406 59.902344 20.917969 59.597656 21.042969 C 59.261719 21.167969 59.066406 21.179688 58.546875 21.1875 C 56.96875 21.179688 50.949219 19.558594 48.945312 19.855469 C 48.03125 19.980469 47.660156 20.136719 46.949219 20.734375 C 45.667969 21.824219 43.699219 25.386719 42.738281 27.121094 C 42.167969 28.1875 41.894531 28.640625 41.535156 29.863281 C 40.921875 31.957031 40.886719 37.308594 40.058594 38.703125 C 39.710938 39.246094 39.265625 39.457031 38.863281 39.609375 C 38.558594 39.734375 38.203125 39.730469 37.859375 39.660156 C 37.542969 39.59375 37.234375 39.464844 36.96875 39.242188 C 36.644531 38.949219 36.375 38.464844 36.203125 37.964844 C 35.960938 37.226562 35.9375 36.257812 35.949219 35.257812 C 35.960938 33.9375 36.152344 31.601562 36.476562 30.699219 C 36.617188 30.265625 36.769531 30.054688 36.992188 29.789062 C 37.246094 29.558594 37.554688 29.363281 37.886719 29.273438 C 38.1875 29.175781 38.578125 29.152344 38.894531 29.21875 C 39.242188 29.289062 39.582031 29.421875 39.847656 29.644531 C 40.085938 29.832031 40.347656 30.121094 40.46875 30.457031 C 40.621094 30.859375 40.429688 31.417969 40.566406 31.949219 C 40.71875 32.644531 41.234375 33.21875 41.515625 34.214844 C 42.066406 35.984375 42.359375 39.792969 42.972656 41.894531 C 43.445312 43.460938 43.964844 44.9375 44.605469 45.878906 C 45.015625 46.535156 45.371094 46.832031 46 47.289062 C 46.921875 48.003906 48.4375 48.910156 49.738281 49.40625 C 51.046875 49.871094 52.6875 50.210938 53.84375 50.238281 C 54.679688 50.265625 55.433594 49.863281 56.042969 49.894531 C 56.460938 49.910156 56.773438 50.007812 57.078125 50.167969 C 57.382812 50.363281 57.675781 50.621094 57.867188 50.933594 C 58.0625 51.210938 58.1875 51.550781 58.210938 51.9375 C 58.226562 52.390625 58.023438 53.078125 57.785156 53.472656 C 57.589844 53.808594 57.335938 54.039062 56.96875 54.160156 C 56.429688 54.359375 55.644531 54.175781 54.875 54.125 C 53.882812 54.050781 52.695312 53.984375 51.460938 53.753906 C 49.914062 53.457031 47.929688 53.015625 46.316406 52.421875 C 44.824219 51.871094 43.421875 51.140625 42.050781 50.378906 C 40.746094 49.621094 39.21875 48.8125 38.316406 47.90625 C 37.644531 47.253906 37.242188 46.5 36.933594 45.789062 C 36.648438 45.144531 36.515625 44.582031 36.433594 43.863281 C 36.34375 42.917969 36.160156 41.316406 36.5 40.578125 C 36.71875 40.050781 37.144531 39.679688 37.589844 39.46875 C 38.058594 39.292969 38.738281 39.273438 39.148438 39.378906 C 39.523438 39.484375 39.820312 39.710938 40.054688 39.929688 C 40.285156 40.183594 40.421875 40.421875 40.597656 40.859375 C 40.953125 41.769531 40.996094 44.324219 41.597656 45.328125 C 41.980469 45.980469 43.171875 46.304688 43.101562 46.652344 C 43.0625 47.003906 41.976562 47.496094 41.363281 47.496094 C 40.71875 47.488281 39.40625 46.796875 39.378906 46.441406 C 39.390625 46.054688 41.636719 45.265625 41.632812 45.296875 C 41.667969 45.300781 39.84375 46.910156 39.417969 46.703125 C 38.839844 46.382812 38.683594 43.042969 39.230469 42.164062 C 39.625 41.496094 41.222656 41.671875 41.335938 41.199219 C 41.492188 40.667969 39.785156 39.738281 39.824219 39.097656 C 39.855469 38.488281 41.296875 38 41.429688 37.371094 C 41.558594 36.769531 41.316406 35.742188 40.804688 35.398438 C 40.171875 34.972656 38.199219 35.921875 37.515625 35.6875 C 37.140625 35.546875 36.949219 35.238281 36.757812 34.925781 C 36.5625 34.644531 36.441406 34.277344 36.414062 33.921875 C 36.386719 33.59375 36.460938 33.214844 36.59375 32.875 C 36.722656 32.566406 36.921875 32.234375 37.199219 32.039062 C 37.585938 31.757812 38.253906 31.539062 38.707031 31.523438 C 39.066406 31.496094 39.484375 31.511719 39.746094 31.796875 C 40.167969 32.359375 40.386719 34.804688 40.128906 35.386719 C 40.003906 35.632812 39.804688 35.707031 39.507812 35.773438 C 39.042969 35.882812 37.945312 35.894531 37.457031 35.613281 C 37.027344 35.40625 36.691406 34.949219 36.542969 34.515625 C 36.394531 34.113281 36.324219 33.554688 36.503906 33.089844 C 36.722656 32.566406 37.417969 31.835938 37.953125 31.636719 C 38.398438 31.425781 38.972656 31.488281 39.371094 31.660156 C 39.808594 31.804688 40.253906 32.144531 40.503906 32.523438 C 40.753906 32.90625 40.921875 33.441406 40.835938 33.917969 C 40.742188 34.488281 40.257812 35.371094 39.742188 35.667969 C 39.195312 35.964844 38.1875 36.015625 37.640625 35.730469 C 37.085938 35.476562 36.566406 34.613281 36.433594 34.050781 C 36.324219 33.585938 36.550781 32.675781 36.683594 32.660156 C 36.875 32.648438 37.6875 35.574219 37.515625 35.6875 C 37.414062 35.738281 36.699219 34.886719 36.519531 34.449219 C 36.394531 34.113281 36.371094 33.722656 36.4375 33.40625 C 36.476562 33.054688 36.609375 32.714844 36.835938 32.417969 C 37.132812 32.0625 37.625 31.695312 38.1875 31.5625 C 38.917969 31.382812 40.125 31.546875 40.933594 31.828125 C 41.648438 32.101562 42.203125 32.613281 42.789062 33.160156 C 43.460938 33.8125 44.433594 34.664062 44.628906 35.554688 C 44.816406 36.511719 44.421875 38.050781 43.832031 38.726562 C 43.3125 39.347656 42.351562 39.597656 41.5 39.699219 C 40.613281 39.832031 39.359375 39.789062 38.636719 39.324219 C 37.882812 38.824219 37.148438 37.582031 37.105469 36.769531 C 37.019531 36.082031 37.402344 35.222656 37.90625 34.761719 C 38.441406 34.269531 39.503906 33.996094 40.273438 34.050781 C 41.011719 34.097656 41.800781 34.539062 42.394531 35.023438 C 43.046875 35.578125 43.71875 36.488281 43.925781 37.285156 C 44.101562 38.046875 43.929688 39.027344 43.652344 39.773438 C 43.414062 40.488281 43.019531 41.15625 42.382812 41.667969 C 41.605469 42.292969 39.90625 43.078125 39.050781 42.921875 C 38.390625 42.785156 37.84375 42.175781 37.546875 41.628906 C 37.25 41.078125 37.144531 40.292969 37.339844 39.667969 C 37.542969 38.980469 38.199219 37.988281 38.90625 37.742188 C 39.644531 37.464844 40.996094 37.804688 41.691406 38.238281 C 42.328125 38.628906 42.699219 39.347656 43.011719 40.027344 C 43.390625 40.710938 43.660156 41.515625 43.792969 42.371094 C 43.910156 43.351562 43.84375 44.570312 43.738281 45.527344 C 43.652344 46.324219 43.636719 47.0625 43.300781 47.769531 C 42.898438 48.53125 42.257812 49.65625 41.421875 49.921875 C 40.484375 50.238281 38.4375 49.792969 37.734375 49.101562 C 37.183594 48.558594 37.171875 47.460938 37.105469 46.582031 C 37.035156 45.734375 36.953125 44.726562 37.324219 43.992188 C 37.726562 43.226562 38.753906 42.402344 39.550781 42.199219 C 40.3125 42.023438 41.246094 42.351562 42.011719 42.726562 C 42.78125 43.066406 43.554688 43.667969 44.128906 44.308594 C 44.738281 44.957031 45.355469 45.796875 45.585938 46.664062 C 45.773438 47.585938 45.691406 48.933594 45.320312 49.699219 C 44.996094 50.308594 44.390625 50.824219 43.726562 51.011719 C 42.988281 51.253906 41.792969 50.960938 40.976562 50.746094 C 40.222656 50.566406 39.507812 50.328125 38.945312 49.847656 C 38.386719 49.367188 37.992188 48.808594 37.605469 47.925781 C 36.96875 46.371094 36.070312 42.433594 36.316406 41.074219 C 36.453125 40.410156 36.816406 40.03125 37.140625 39.742188 C 37.421875 39.515625 37.757812 39.390625 38.117188 39.332031 C 38.449219 39.273438 38.804688 39.246094 39.148438 39.378906 C 39.578125 39.554688 40.09375 39.871094 40.363281 40.351562 C 40.773438 41.042969 40.421875 42.488281 40.777344 43.367188 C 41.078125 44.171875 41.433594 44.761719 42.167969 45.421875 C 43.347656 46.453125 45.683594 47.542969 47.695312 48.3125 C 49.929688 49.136719 53.417969 50 54.988281 50.105469 C 55.691406 50.179688 56.113281 49.871094 56.582031 49.988281 C 56.929688 50.058594 57.265625 50.253906 57.527344 50.507812 C 57.761719 50.726562 57.980469 51.074219 58.105469 51.410156 C 58.199219 51.742188 58.253906 52.136719 58.183594 52.484375 C 58.144531 52.835938 57.976562 53.203125 57.785156 53.472656 C 57.558594 53.773438 57.25 53.964844 56.96875 54.160156 C 56.621094 54.378906 56.3125 54.539062 55.882812 54.65625 C 55.320312 54.789062 54.640625 54.808594 53.804688 54.75 C 52.554688 54.679688 50.625 54.339844 49.125 53.886719 C 47.628906 53.402344 46.113281 52.785156 44.816406 51.9375 C 43.554688 51.089844 42.398438 50.15625 41.441406 48.859375 C 40.320312 47.285156 39.601562 45.304688 38.824219 42.925781 C 37.796875 39.621094 36.164062 32.375 36.476562 30.699219 C 36.5625 30.191406 36.769531 30.054688 36.992188 29.789062 C 37.246094 29.558594 37.554688 29.363281 37.886719 29.273438 C 38.1875 29.175781 38.578125 29.152344 38.894531 29.21875 C 39.242188 29.289062 39.582031 29.421875 39.847656 29.644531 C 40.085938 29.832031 40.34375 30.152344 40.46875 30.457031 C 40.597656 30.761719 40.660156 31.089844 40.652344 31.445312 C 40.640625 31.863281 40.378906 32.1875 40.3125 32.792969 C 40.152344 33.972656 40.648438 37.125 40.269531 38.242188 C 40.046875 38.800781 39.75 39.15625 39.339844 39.402344 C 38.925781 39.648438 38.332031 39.742188 37.859375 39.660156 C 37.414062 39.578125 36.875 39.199219 36.621094 38.878906 C 36.390625 38.597656 36.28125 38.425781 36.203125 37.964844 C 35.992188 36.617188 36.617188 32.070312 36.992188 30.078125 C 37.265625 28.753906 37.363281 28.183594 37.917969 26.917969 C 38.933594 24.707031 41.964844 19.96875 43.308594 18.277344 C 43.949219 17.441406 44.316406 17.03125 44.945312 16.582031 C 45.675781 16.113281 46.582031 15.789062 47.4375 15.625 C 48.332031 15.433594 49.128906 15.519531 50.246094 15.609375 C 51.949219 15.695312 54.800781 16.167969 56.515625 16.417969 C 57.722656 16.613281 58.816406 16.636719 59.554688 16.972656 C 60.074219 17.222656 60.484375 17.625 60.703125 18.003906 C 60.894531 18.3125 60.984375 18.679688 60.980469 19 C 60.972656 19.355469 60.902344 19.703125 60.742188 20.007812 C 60.503906 20.402344 60.097656 20.875 59.597656 21.042969 C 58.925781 21.292969 57.78125 21.105469 56.933594 20.917969 C 56.082031 20.726562 55.351562 20.035156 54.390625 19.960938 C 53.238281 19.871094 51.339844 20.40625 50.457031 20.792969 C 49.917969 21.027344 49.734375 21.523438 49.269531 21.632812 C 48.773438 21.742188 47.859375 21.546875 47.445312 21.210938 C 47.085938 20.945312 46.789062 20.429688 46.742188 19.9375 C 46.703125 19.417969 46.945312 18.671875 47.363281 18.101562 C 47.964844 17.328125 49.617188 16.347656 50.464844 15.988281 C 51.003906 15.785156 51.433594 15.671875 51.847656 15.71875 C 52.167969 15.753906 52.449219 15.847656 52.714844 16.070312 C 53.007812 16.328125 53.375 16.820312 53.457031 17.246094 C 53.574219 17.679688 53.441406 18.277344 53.246094 18.613281 C 53.113281 18.921875 52.621094 19.320312 52.621094 19.320312 " clip-rule="nonzero"/></clipPath><clipPath id="45b4d494e0"><path d="M 35 43 L 65 43 L 65 57 L 35 57 Z M 35 43 " clip-rule="nonzero"/></clipPath><clipPath id="43feb21d78"><path d="M 33.976562 54.355469 L 35.179688 43.289062 L 65.285156 46.558594 L 64.082031 57.625 Z M 33.976562 54.355469 " clip-rule="nonzero"/></clipPath><clipPath id="9f7faf5e8f"><path d="M 64.21875 52.171875 C 60.539062 55.160156 58.246094 55.460938 56.605469 55.734375 C 55.253906 55.972656 54.144531 56.078125 52.792969 56.0625 C 51.273438 56.089844 49.671875 56.273438 47.894531 55.691406 C 45.496094 54.914062 40.949219 51.902344 39.96875 50.828125 C 39.679688 50.507812 39.574219 50.300781 39.542969 50.007812 C 39.507812 49.714844 39.613281 49.339844 39.769531 49.097656 C 39.953125 48.890625 40.269531 48.667969 40.535156 48.597656 C 40.832031 48.535156 41.21875 48.542969 41.457031 48.699219 C 41.789062 48.929688 41.785156 49.542969 42.164062 49.9375 C 42.855469 50.691406 45.15625 51.488281 45.625 52.21875 C 45.871094 52.632812 45.882812 53.117188 45.75 53.457031 C 45.617188 53.796875 45.183594 54.203125 44.824219 54.261719 C 44.460938 54.351562 44.117188 54.214844 43.628906 53.96875 C 42.410156 53.320312 39.511719 50.875 38.128906 49.339844 C 37.066406 48.125 35.539062 46.152344 35.78125 45.695312 C 35.875 45.445312 36.707031 45.796875 37.019531 45.601562 C 37.292969 45.441406 37.347656 44.671875 37.609375 44.636719 C 37.996094 44.613281 38.925781 45.875 39.128906 46.382812 C 39.289062 46.6875 39.292969 46.949219 39.265625 47.203125 C 39.203125 47.488281 39.042969 47.757812 38.832031 47.929688 C 38.652344 48.105469 38.34375 48.265625 38.085938 48.269531 C 37.824219 48.304688 37.476562 48.234375 37.265625 48.082031 C 37 47.859375 36.699219 47.34375 36.640625 47.015625 C 36.640625 46.722656 36.707031 46.410156 36.890625 46.203125 C 37.113281 45.9375 37.628906 45.636719 38.015625 45.648438 C 38.367188 45.652344 38.878906 46 39.078125 46.246094 C 39.246094 46.492188 39.308594 46.820312 39.277344 47.074219 C 39.25 47.332031 39.121094 47.640625 38.9375 47.84375 C 38.753906 48.050781 38.476562 48.214844 38.214844 48.25 C 37.949219 48.320312 37.695312 48.289062 37.390625 48.128906 C 36.898438 47.914062 36.078125 47.113281 35.683594 46.621094 C 35.429688 46.269531 35.238281 45.957031 35.152344 45.5625 C 35.070312 45.132812 34.953125 44.410156 35.214844 44.085938 C 35.480469 43.726562 36.285156 43.457031 36.730469 43.507812 C 37.144531 43.550781 37.472656 43.8125 37.851562 44.175781 C 38.492188 44.796875 38.828125 46.1875 39.742188 47.285156 C 41.089844 48.820312 45.023438 50.925781 45.625 52.21875 C 45.886719 52.792969 45.851562 53.402344 45.625 53.734375 C 45.359375 54.09375 44.722656 54.3125 44.179688 54.253906 C 43.441406 54.207031 42.390625 53.480469 41.648438 52.882812 C 40.910156 52.253906 40.046875 51.289062 39.765625 50.613281 C 39.589844 50.175781 39.476562 49.710938 39.640625 49.40625 C 39.808594 49.035156 40.277344 48.570312 40.863281 48.539062 C 42.25 48.527344 46.640625 52.390625 48.089844 53 C 48.679688 53.226562 48.8125 53.210938 49.351562 53.269531 C 50.496094 53.425781 52.707031 53.566406 54.496094 53.4375 C 56.515625 53.269531 59.8125 52.953125 60.886719 52.261719 C 61.375 51.925781 61.296875 51.433594 61.691406 51.089844 C 62.15625 50.65625 63.089844 50.082031 63.613281 50.039062 C 63.90625 50.007812 64.183594 50.132812 64.390625 50.285156 C 64.570312 50.433594 64.765625 50.714844 64.765625 51.003906 C 64.796875 51.332031 64.21875 52.171875 64.21875 52.171875 " clip-rule="nonzero"/></clipPath><clipPath id="af52fcfa92"><path d="M 36 16 L 67 16 L 67 52 L 36 52 Z M 36 16 " clip-rule="nonzero"/></clipPath><clipPath id="486ca9c7dc"><path d="M 35.546875 50.714844 L 39.519531 14.136719 L 67.101562 17.132812 L 63.128906 53.710938 Z M 35.546875 50.714844 " clip-rule="nonzero"/></clipPath><clipPath id="0fd000e5c7"><path d="M 40.917969 23.082031 C 45.269531 19.554688 47.398438 18.074219 48.789062 17.449219 C 49.707031 17.035156 50.261719 16.964844 51.25 16.78125 C 52.699219 16.519531 55.503906 16.242188 56.765625 16.21875 C 57.378906 16.222656 57.832031 16.207031 58.199219 16.375 C 58.476562 16.5 58.671875 16.78125 58.773438 17.019531 C 58.875 17.289062 58.902344 17.644531 58.773438 17.921875 C 58.648438 18.199219 58.390625 18.492188 57.914062 18.699219 C 56.898438 19.136719 54.132812 19.0625 52.324219 19.351562 C 50.683594 19.625 48.582031 20.558594 47.566406 20.382812 C 46.996094 20.289062 46.511719 20.011719 46.351562 19.671875 C 46.199219 19.300781 46.300781 18.664062 46.632812 18.28125 C 47.117188 17.6875 48.636719 17.371094 49.671875 17.0625 C 50.703125 16.753906 52.09375 16.421875 52.863281 16.472656 C 53.3125 16.523438 53.6875 16.628906 53.886719 16.875 C 54.113281 17.15625 54.195312 17.875 54.03125 18.214844 C 53.902344 18.488281 53.59375 18.683594 53.125 18.824219 C 52.285156 19.121094 49.816406 19.273438 48.972656 19.019531 C 48.539062 18.875 48.207031 18.644531 48.109375 18.34375 C 47.953125 18.003906 48.09375 17.3125 48.316406 17.042969 C 48.472656 16.804688 48.703125 16.761719 49.066406 16.675781 C 49.859375 16.503906 52.261719 16.375 53.070312 16.65625 C 53.472656 16.796875 53.800781 17.058594 53.898438 17.359375 C 54.027344 17.664062 53.96875 18.175781 53.8125 18.449219 C 53.6875 18.691406 53.511719 18.835938 53.144531 18.957031 C 52.367188 19.257812 49.828125 19.757812 49.023438 19.445312 C 48.621094 19.304688 48.332031 18.980469 48.269531 18.652344 C 48.179688 18.289062 48.3125 17.6875 48.699219 17.375 C 49.339844 16.832031 51.929688 16.46875 52.710938 16.714844 C 53.144531 16.859375 53.398438 17.207031 53.492188 17.507812 C 53.585938 17.84375 53.578125 18.230469 53.308594 18.617188 C 52.738281 19.429688 50.191406 20.28125 48.960938 21.210938 C 47.875 22 47.089844 22.6875 46.207031 23.6875 C 45.179688 24.835938 44.101562 27.332031 43.167969 27.910156 C 42.6875 28.179688 42.164062 28.25 41.824219 28.085938 C 41.492188 27.886719 41.21875 27.4375 41.183594 26.855469 C 41.050781 25.710938 42.277344 22.421875 42.820312 21.289062 C 43.109375 20.707031 43.265625 20.464844 43.660156 20.089844 C 44.265625 19.574219 45.191406 19.09375 46.261719 18.726562 C 47.902344 18.191406 50.429688 17.789062 52.609375 17.640625 C 54.855469 17.464844 57.492188 17.523438 59.492188 17.839844 C 61.082031 18.074219 62.585938 18.464844 63.691406 19.003906 C 64.515625 19.417969 65.167969 19.972656 65.664062 20.445312 C 66.039062 20.839844 66.414062 21.269531 66.503906 21.632812 C 66.535156 21.925781 66.433594 22.269531 66.277344 22.511719 C 66.125 22.753906 65.941406 22.925781 65.542969 23.046875 C 64.378906 23.371094 59.886719 22.527344 58.109375 22.5625 C 57.105469 22.582031 56.679688 22.664062 55.757812 22.820312 C 54.347656 23.023438 51.625 23.4375 50.492188 23.765625 C 49.957031 23.933594 49.65625 24.03125 49.308594 24.25 C 48.957031 24.535156 48.734375 24.800781 48.449219 25.320312 C 48.003906 26.175781 47.59375 27.550781 47.21875 29.253906 C 46.535156 32.246094 46.296875 40.414062 45.613281 41.921875 C 45.441406 42.324219 45.269531 42.433594 45.0625 42.570312 C 44.824219 42.675781 44.457031 42.765625 44.210938 42.671875 C 43.871094 42.539062 43.488281 42.207031 43.320312 41.640625 C 42.886719 40.304688 43.640625 35.738281 44.195312 33.894531 C 44.539062 32.800781 45.042969 32.050781 45.527344 31.425781 C 45.863281 31.007812 46.15625 30.6875 46.566406 30.472656 C 46.976562 30.257812 47.488281 30.023438 47.902344 30.070312 C 48.378906 30.152344 48.976562 30.574219 49.226562 30.953125 C 49.445312 31.300781 49.4375 31.6875 49.441406 32.238281 C 49.421875 33.332031 48.953125 36.152344 48.433594 37.066406 C 48.195312 37.492188 47.871094 37.777344 47.539062 37.871094 C 47.269531 37.972656 46.886719 37.929688 46.644531 37.773438 C 46.316406 37.546875 46.042969 37.097656 45.917969 36.46875 C 45.695312 35.25 45.988281 31.957031 46.574219 30.699219 C 46.917969 29.929688 47.542969 29.222656 48.035156 29.148438 C 48.464844 29.066406 49.011719 29.351562 49.289062 29.769531 C 49.796875 30.46875 50.011719 32.945312 49.632812 33.742188 C 49.390625 34.199219 48.800781 34.585938 48.414062 34.578125 C 47.996094 34.566406 47.484375 34.21875 47.183594 33.734375 C 46.695312 32.875 46.671875 30.417969 46.808594 29.433594 C 46.902344 28.894531 46.980469 28.453125 47.265625 28.191406 C 47.585938 27.9375 48.371094 27.828125 48.742188 27.996094 C 49.082031 28.132812 49.296875 28.511719 49.472656 28.980469 C 49.734375 29.847656 49.644531 31.550781 49.535156 32.859375 C 49.410156 34.300781 49.296875 35.964844 48.691406 37.351562 C 48.089844 38.738281 46.773438 40.464844 45.890625 41.175781 C 45.394531 41.574219 44.980469 41.820312 44.429688 41.824219 C 43.851562 41.828125 43.105469 41.554688 42.515625 41.039062 C 41.6875 40.367188 40.925781 37.539062 40.371094 37.609375 C 39.917969 37.625 39.523438 39.195312 39.363281 40.050781 C 39.175781 40.898438 39.113281 41.765625 39.332031 42.722656 C 39.589844 43.914062 40.464844 45.363281 41.144531 46.535156 C 41.832031 47.644531 43.128906 48.785156 43.394531 49.585938 C 43.542969 50.023438 43.566406 50.378906 43.40625 50.6875 C 43.277344 50.960938 42.855469 51.273438 42.53125 51.300781 C 42.171875 51.328125 41.339844 50.6875 41.335938 50.71875 C 41.335938 50.71875 42.40625 51.253906 42.363281 51.347656 C 42.320312 51.472656 40.46875 51.269531 39.644531 50.859375 C 38.699219 50.335938 37.578125 49.085938 37.054688 48.253906 C 36.726562 47.703125 36.582031 47.234375 36.484375 46.644531 C 36.425781 46.023438 36.488281 45.125 36.679688 44.566406 C 36.851562 44.164062 37.089844 43.773438 37.367188 43.574219 C 37.578125 43.4375 37.902344 43.410156 38.15625 43.4375 C 38.410156 43.496094 38.683594 43.652344 38.855469 43.835938 C 39.0625 44.019531 39.195312 44.289062 39.230469 44.554688 C 39.226562 44.875 39.039062 45.433594 38.785156 45.667969 C 38.503906 45.894531 37.945312 45.996094 37.628906 45.929688 C 37.34375 45.863281 37.105469 45.710938 36.9375 45.464844 C 36.773438 45.191406 36.671875 44.628906 36.738281 44.316406 C 36.800781 44.03125 37.019531 43.796875 37.230469 43.65625 C 37.4375 43.519531 37.769531 43.425781 38.027344 43.453125 C 38.285156 43.449219 38.5625 43.578125 38.769531 43.726562 C 38.976562 43.914062 39.117188 44.121094 39.179688 44.417969 C 39.34375 44.984375 38.933594 46.101562 39.207031 46.839844 C 39.480469 47.582031 40.207031 48.335938 40.933594 48.773438 C 41.625 49.234375 43.054688 49.164062 43.394531 49.585938 C 43.597656 49.804688 43.558594 50.152344 43.53125 50.410156 C 43.472656 50.660156 43.277344 50.960938 43.039062 51.097656 C 42.824219 51.269531 42.496094 51.328125 42.242188 51.300781 C 41.980469 51.304688 41.800781 51.1875 41.507812 50.929688 C 40.734375 50.300781 39.125 47.898438 38.34375 46.488281 C 37.691406 45.355469 37.128906 44.292969 36.890625 43.234375 C 36.667969 42.304688 36.636719 41.398438 36.769531 40.476562 C 36.90625 39.492188 37.148438 38.453125 37.726562 37.613281 C 38.3125 36.675781 39.503906 35.480469 40.335938 35.25 C 40.9375 35.089844 41.542969 35.15625 42.050781 35.53125 C 42.855469 36.136719 43.242188 39.40625 43.976562 39.484375 C 44.710938 39.53125 46.019531 37.320312 46.535156 35.824219 C 47.191406 33.929688 46.476562 29.816406 46.917969 28.734375 C 47.089844 28.335938 47.269531 28.160156 47.542969 28.027344 C 47.789062 27.863281 48.183594 27.777344 48.460938 27.902344 C 48.835938 28.007812 49.242188 28.441406 49.472656 28.980469 C 49.855469 29.925781 49.964844 32.488281 49.699219 33.425781 C 49.585938 33.898438 49.347656 34.292969 49.011719 34.417969 C 48.636719 34.601562 47.871094 34.519531 47.546875 34.226562 C 47.191406 33.929688 47.066406 33.011719 47.0625 32.460938 C 47.074219 32.042969 47.15625 31.601562 47.410156 31.339844 C 47.761719 31.054688 48.804688 30.683594 49.128906 30.976562 C 49.714844 31.523438 48.910156 35.664062 48.53125 36.753906 C 48.347656 37.25 48.152344 37.582031 47.84375 37.742188 C 47.53125 37.933594 46.949219 37.96875 46.644531 37.773438 C 46.28125 37.574219 46.015625 37.058594 45.917969 36.46875 C 45.773438 35.421875 46.347656 32.191406 46.890625 31.960938 C 47.160156 31.859375 47.855469 32.289062 47.886719 32.585938 C 47.96875 33.011719 46.914062 33.511719 46.558594 34.410156 C 45.898438 36.046875 46.3125 41.160156 45.488281 42.199219 C 45.121094 42.609375 44.5625 42.710938 44.210938 42.671875 C 43.921875 42.640625 43.660156 42.386719 43.523438 42.179688 C 43.351562 41.96875 43.335938 41.804688 43.320312 41.351562 C 43.214844 39.660156 44.128906 31.820312 44.683594 28.816406 C 45 27.074219 45.257812 25.910156 45.765625 24.800781 C 46.148438 23.941406 46.578125 23.246094 47.191406 22.667969 C 47.832031 22.089844 48.453125 21.738281 49.519531 21.402344 C 51.367188 20.765625 54.933594 20.3125 57.59375 20.179688 C 60.089844 20.066406 63.582031 20.316406 64.945312 20.527344 C 65.484375 20.617188 65.804688 20.621094 66.074219 20.84375 C 66.308594 21.03125 66.46875 21.339844 66.503906 21.632812 C 66.5 21.957031 66.308594 22.515625 66.089844 22.75 C 65.875 22.953125 65.601562 23.117188 65.21875 23.074219 C 64.386719 22.984375 62.558594 21.109375 61.3125 20.683594 C 60.320312 20.316406 59.578125 20.332031 58.488281 20.246094 C 56.921875 20.109375 54.714844 19.933594 52.859375 20.085938 C 50.90625 20.230469 48.269531 20.75 47.074219 21.070312 C 46.472656 21.234375 46.144531 21.292969 45.792969 21.546875 C 45.480469 21.769531 45.269531 21.941406 44.992188 22.394531 C 44.433594 23.398438 44.117188 26.882812 43.355469 27.671875 C 42.988281 28.082031 42.453125 28.25 42.105469 28.179688 C 41.757812 28.109375 41.378906 27.746094 41.25 27.441406 C 41.121094 27.136719 41.191406 26.789062 41.371094 26.328125 C 41.730469 25.398438 43.320312 23.535156 44.277344 22.445312 C 45.085938 21.535156 45.664062 20.953125 46.6875 20.160156 C 48.097656 19.054688 50.960938 16.78125 52.164062 16.6875 C 52.683594 16.648438 53.203125 16.929688 53.394531 17.242188 C 53.582031 17.582031 53.503906 18.316406 53.308594 18.617188 C 53.152344 18.859375 52.921875 18.933594 52.582031 19.058594 C 51.847656 19.300781 49.730469 19.78125 49.023438 19.445312 C 48.589844 19.269531 48.261719 18.75 48.203125 18.386719 C 48.175781 18.03125 48.351562 17.628906 48.699219 17.375 C 49.398438 16.871094 52.191406 16.433594 53.070312 16.65625 C 53.476562 16.765625 53.800781 17.058594 53.898438 17.359375 C 54.027344 17.664062 54.003906 18.179688 53.8125 18.449219 C 53.652344 18.722656 53.3125 18.878906 52.882812 18.992188 C 51.984375 19.21875 49.433594 19.230469 48.691406 18.925781 C 48.351562 18.789062 48.214844 18.582031 48.109375 18.34375 C 47.976562 18.105469 47.945312 17.777344 48.039062 17.53125 C 48.097656 17.277344 48.320312 17.011719 48.53125 16.84375 C 48.773438 16.707031 49 16.699219 49.394531 16.644531 C 50.214844 16.507812 52.664062 16.226562 53.433594 16.566406 C 53.835938 16.738281 54.054688 17.085938 54.152344 17.386719 C 54.222656 17.621094 54.152344 17.96875 54.03125 18.214844 C 53.910156 18.425781 53.730469 18.601562 53.421875 18.761719 C 52.808594 19.050781 51.425781 19.027344 50.394531 19.304688 C 49.367188 19.546875 47.972656 20.523438 47.246094 20.382812 C 46.804688 20.269531 46.34375 19.765625 46.289062 19.375 C 46.199219 19.007812 46.421875 18.453125 46.84375 18.109375 C 47.664062 17.425781 50.132812 17.273438 51.910156 16.949219 C 53.8125 16.640625 56.828125 15.933594 57.886719 16.277344 C 58.390625 16.394531 58.683594 16.683594 58.773438 17.019531 C 58.898438 17.386719 58.859375 18.027344 58.464844 18.40625 C 57.5 19.269531 52.914062 18.671875 50.675781 19.398438 C 48.835938 19.972656 47.433594 21.015625 45.945312 21.949219 C 44.519531 22.890625 42.859375 24.808594 41.992188 25.070312 C 41.625 25.160156 41.410156 25.070312 41.160156 24.980469 C 40.949219 24.859375 40.683594 24.636719 40.613281 24.371094 C 40.523438 24.039062 40.917969 23.082031 40.917969 23.082031 " clip-rule="nonzero"/></clipPath><clipPath id="59f952b730"><path d="M 45 20 L 61 20 L 61 32 L 45 32 Z M 45 20 " clip-rule="nonzero"/></clipPath><clipPath id="914a0bc0fd"><path d="M 45.144531 31.179688 L 46.496094 18.730469 L 60.578125 20.257812 L 59.226562 32.707031 Z M 45.144531 31.179688 " clip-rule="nonzero"/></clipPath><clipPath id="d1e131b77d"><path d="M 53.433594 21.054688 C 55.277344 21.285156 55.441406 21.5625 55.476562 21.824219 C 55.515625 22.085938 55.480469 22.40625 55.355469 22.648438 C 55.234375 22.863281 55.019531 23.066406 54.71875 23.160156 C 54.113281 23.386719 52.578125 22.960938 51.816406 23.136719 C 51.285156 23.273438 50.917969 23.394531 50.523438 23.769531 C 49.945312 24.320312 49.4375 25.460938 49 26.507812 C 48.449219 27.707031 48.242188 29.914062 47.613281 30.652344 C 47.25 31.03125 46.738281 31.265625 46.386719 31.257812 C 46.097656 31.230469 45.792969 31.066406 45.625 30.824219 C 45.425781 30.574219 45.339844 30.179688 45.363281 29.695312 C 45.410156 28.960938 45.878906 27.621094 46.292969 26.765625 C 46.632812 26.027344 47.152344 25.375 47.574219 24.773438 C 47.921875 24.261719 48.207031 23.710938 48.558594 23.429688 C 48.808594 23.230469 49.082031 23.066406 49.375 23.066406 C 49.695312 23.066406 50.21875 23.285156 50.449219 23.570312 C 50.648438 23.816406 50.703125 24.210938 50.644531 24.71875 C 50.527344 25.804688 49.382812 28.90625 48.566406 29.59375 C 48.144531 29.933594 47.523438 29.996094 47.152344 29.859375 C 46.808594 29.757812 46.527344 29.371094 46.410156 28.9375 C 46.25 28.339844 46.554688 27.339844 46.777344 26.460938 C 47.0625 25.332031 47.460938 23.726562 48.082031 22.761719 C 48.582031 22.042969 49.09375 21.484375 49.847656 21.082031 C 50.800781 20.605469 52.171875 20.464844 53.511719 20.320312 C 55.148438 20.109375 57.785156 19.878906 58.953125 20.136719 C 59.550781 20.265625 60.046875 20.480469 60.265625 20.828125 C 60.457031 21.136719 60.425781 21.714844 60.296875 22.023438 C 60.171875 22.300781 59.957031 22.472656 59.617188 22.628906 C 58.933594 22.972656 57.433594 23.132812 56.125 23.28125 C 54.496094 23.425781 52.035156 23.222656 50.535156 23.351562 C 49.523438 23.46875 48.636719 23.921875 48 23.820312 C 47.5625 23.707031 47.136719 23.46875 46.976562 23.160156 C 46.785156 22.816406 46.785156 22.234375 46.945312 21.929688 C 47.113281 21.59375 47.597656 21.289062 47.925781 21.230469 C 48.222656 21.164062 48.539062 21.230469 48.75 21.382812 C 48.992188 21.507812 49.191406 21.753906 49.296875 21.992188 C 49.398438 22.226562 49.425781 22.585938 49.367188 22.839844 C 49.304688 23.089844 49.148438 23.363281 48.933594 23.535156 C 48.65625 23.730469 48.0625 23.824219 47.71875 23.757812 C 47.464844 23.695312 47.199219 23.472656 47.058594 23.265625 C 46.890625 23.054688 46.761719 22.75 46.824219 22.464844 C 46.859375 22.144531 47.039062 21.683594 47.425781 21.402344 C 47.988281 20.976562 49.222656 20.886719 50.332031 20.78125 C 51.800781 20.617188 53.832031 20.933594 55.425781 20.816406 C 56.792969 20.707031 58.476562 20.050781 59.273438 20.171875 C 59.65625 20.210938 59.894531 20.367188 60.097656 20.582031 C 60.269531 20.792969 60.425781 21.132812 60.425781 21.425781 C 60.425781 21.714844 60.292969 22.054688 60.105469 22.292969 C 59.921875 22.5 59.71875 22.605469 59.316406 22.722656 C 58.285156 23 54.972656 22.609375 53.402344 22.824219 C 52.320312 22.964844 51.238281 23.136719 50.679688 23.527344 C 50.324219 23.8125 50.238281 24.03125 50.023438 24.523438 C 49.59375 25.507812 49.363281 28.515625 48.753906 29.355469 C 48.453125 29.742188 48.113281 29.929688 47.753906 29.957031 C 47.394531 29.980469 46.875 29.730469 46.675781 29.484375 C 46.472656 29.269531 46.371094 29.03125 46.378906 28.644531 C 46.375 27.804688 47.316406 25.648438 47.8125 24.671875 C 48.136719 24.058594 48.363281 23.4375 48.808594 23.230469 C 49.183594 23.042969 49.917969 23.089844 50.246094 23.351562 C 50.542969 23.578125 50.738281 24.179688 50.644531 24.71875 C 50.519531 25.578125 48.992188 26.863281 48.488281 27.9375 C 48.039062 28.824219 48.03125 30.082031 47.613281 30.652344 C 47.351562 30.976562 47.003906 31.230469 46.675781 31.257812 C 46.320312 31.285156 45.824219 31.070312 45.625 30.824219 C 45.394531 30.570312 45.339844 30.179688 45.363281 29.695312 C 45.417969 28.894531 45.988281 27.503906 46.429688 26.390625 C 46.875 25.277344 47.578125 23.839844 48.085938 23.023438 C 48.433594 22.511719 48.628906 22.175781 48.988281 21.859375 C 49.34375 21.542969 49.730469 21.265625 50.234375 21.09375 C 50.941406 20.816406 52.125 20.621094 52.988281 20.683594 C 53.789062 20.738281 54.867188 20.917969 55.242188 21.3125 C 55.46875 21.597656 55.546875 22.089844 55.449219 22.371094 C 55.382812 22.683594 55.027344 23 54.71875 23.160156 C 54.375 23.351562 53.785156 23.445312 53.410156 23.339844 C 53.09375 23.273438 52.703125 23.007812 52.539062 22.730469 C 52.40625 22.457031 52.398438 21.941406 52.558594 21.667969 C 52.683594 21.390625 53.433594 21.054688 53.433594 21.054688 " clip-rule="nonzero"/></clipPath><clipPath id="fc1dc7c0e6"><path d="M 0 16 L 40 16 L 40 34 L 0 34 Z M 0 16 " clip-rule="nonzero"/></clipPath><clipPath id="faeb335af3"><path d="M -49.484375 25.9375 L -48.167969 13.804688 L 40.890625 23.476562 L 39.574219 35.609375 Z M -49.484375 25.9375 " clip-rule="nonzero"/></clipPath><clipPath id="9d6907ccf6"><path d="M -44.402344 17.398438 C -43.71875 18.539062 -43.421875 18.765625 -42.964844 19.007812 C -42.171875 19.449219 -40.574219 20.171875 -39.570312 20.441406 C -38.851562 20.648438 -38.09375 20.503906 -37.601562 20.71875 C -37.296875 20.882812 -37.058594 21.070312 -36.925781 21.339844 C -36.792969 21.613281 -36.792969 22.195312 -36.921875 22.503906 C -37.050781 22.78125 -37.234375 22.988281 -37.601562 23.109375 C -38.28125 23.421875 -40.085938 23.386719 -41.167969 23.269531 C -42.128906 23.195312 -42.914062 23.015625 -43.78125 22.664062 C -44.765625 22.234375 -46.660156 21.253906 -46.703125 20.730469 C -46.734375 20.4375 -46.160156 19.886719 -45.839844 19.921875 C -45.269531 20.015625 -44.550781 22.902344 -43.871094 23.492188 C -43.484375 23.792969 -43.285156 23.75 -42.71875 23.875 C -41.359375 24.152344 -36.472656 23.714844 -35.449219 24.375 C -35.058594 24.640625 -34.90625 25.046875 -34.914062 25.398438 C -34.957031 25.78125 -35.277344 26.363281 -35.75 26.566406 C -36.496094 26.90625 -38.09375 26.441406 -39.40625 26.074219 C -41.09375 25.566406 -43.371094 24.515625 -44.886719 23.640625 C -46.132812 22.921875 -47.449219 21.972656 -48.054688 21.296875 C -48.371094 20.9375 -48.5 20.664062 -48.625 20.296875 C -48.710938 19.933594 -48.820312 19.4375 -48.65625 19.101562 C -48.476562 18.667969 -47.804688 18.128906 -47.304688 17.957031 C -46.902344 17.835938 -46.550781 17.84375 -46.019531 18 C -44.921875 18.3125 -42.820312 20.054688 -41.339844 20.667969 C -40.164062 21.152344 -38.621094 21.191406 -37.953125 21.585938 C -37.617188 21.78125 -37.449219 21.996094 -37.347656 22.265625 C -37.214844 22.535156 -37.226562 22.921875 -37.316406 23.171875 C -37.414062 23.449219 -37.671875 23.746094 -37.910156 23.882812 C -38.152344 24.015625 -38.507812 24.042969 -38.828125 24.007812 C -39.246094 23.992188 -39.722656 23.910156 -40.246094 23.691406 C -41.019531 23.382812 -41.953125 22.765625 -42.90625 22.046875 C -44.226562 21.128906 -46.917969 19.449219 -47.289062 18.410156 C -47.488281 17.871094 -47.296875 17.277344 -47.003906 16.988281 C -46.78125 16.722656 -46.34375 16.542969 -45.867188 16.628906 C -44.953125 16.824219 -43.183594 19.242188 -42.183594 19.835938 C -41.574219 20.160156 -41.34375 20.121094 -40.625 20.328125 C -39.148438 20.714844 -36.390625 21.464844 -33.671875 21.984375 C -29.972656 22.710938 -21.949219 22.804688 -20.328125 23.917969 C -19.785156 24.269531 -19.582031 24.773438 -19.621094 25.15625 C -19.632812 25.542969 -19.96875 25.957031 -20.515625 26.253906 C -21.785156 26.921875 -27.085938 27.316406 -28.351562 26.789062 C -28.878906 26.570312 -29.152344 26.121094 -29.242188 25.789062 C -29.3125 25.523438 -29.179688 25.183594 -29.027344 24.976562 C -28.875 24.765625 -28.730469 24.621094 -28.328125 24.5 C -27.230469 24.167969 -22.9375 24.472656 -21.191406 24.726562 C -20.144531 24.90625 -19.148438 24.949219 -18.714844 25.417969 C -18.375 25.839844 -18.421875 27.160156 -18.453125 27.15625 C -18.453125 27.15625 -18.855469 26.113281 -18.722656 25.769531 C -18.550781 25.402344 -17.867188 25.023438 -17.507812 25 C -17.21875 25 -16.992188 25.3125 -16.679688 25.378906 C -16.328125 25.417969 -16.117188 25.246094 -15.46875 25.253906 C -12.636719 25.300781 4.753906 26.222656 6.8125 28.058594 C 7.433594 28.609375 7.488281 29.585938 7.253906 29.945312 C 7.09375 30.253906 6.128906 30.503906 5.953125 30.355469 C 5.804688 30.210938 5.875 29.28125 6.332031 28.941406 C 7.90625 27.824219 21.265625 29.886719 22.9375 30.554688 C 23.308594 30.691406 23.394531 30.796875 23.5 31 C 23.613281 31.175781 23.675781 31.472656 23.625 31.660156 C 23.597656 31.882812 23.445312 32.125 23.265625 32.265625 C 23.089844 32.410156 22.890625 32.484375 22.597656 32.484375 C 22.050781 32.488281 20.597656 32.171875 20.222656 31.773438 C 19.992188 31.523438 19.910156 31.09375 20.035156 30.820312 C 20.132812 30.539062 20.390625 30.242188 20.957031 30.078125 C 23.125 29.410156 37.152344 31.289062 38.992188 31.875 C 39.367188 32.015625 39.457031 32.054688 39.601562 32.234375 C 39.742188 32.410156 39.84375 32.679688 39.816406 32.902344 C 39.828125 33.097656 39.703125 33.375 39.558594 33.519531 C 39.410156 33.695312 39.199219 33.835938 38.941406 33.839844 C 38.425781 33.847656 37.539062 33.074219 36.671875 32.753906 C 35.617188 32.347656 33.816406 32.28125 33.074219 31.71875 C 32.5625 31.371094 32.136719 30.808594 32.15625 30.359375 C 32.144531 29.875 32.722656 29.292969 33.191406 28.828125 C 33.734375 28.304688 34.761719 28.0625 35.375 27.449219 C 35.957031 26.867188 36.242188 25.703125 36.683594 25.203125 C 37.011719 24.851562 37.296875 24.625 37.628906 24.53125 C 37.929688 24.4375 38.257812 24.375 38.507812 24.464844 C 38.816406 24.597656 39.226562 24.964844 39.320312 25.296875 C 39.445312 25.632812 39.363281 26.109375 39.101562 26.433594 C 38.714844 27.007812 37.503906 27.457031 36.425781 27.886719 C 34.875 28.492188 31.8125 29.644531 30.644531 29.421875 C 30.105469 29.332031 29.660156 28.960938 29.503906 28.621094 C 29.367188 28.378906 29.410156 27.996094 29.503906 27.75 C 29.625 27.503906 29.777344 27.292969 30.089844 27.101562 C 30.882812 26.640625 33.378906 26.523438 34.597656 26.011719 C 35.546875 25.566406 36.242188 24.511719 36.898438 24.421875 C 37.328125 24.339844 37.792969 24.519531 38.023438 24.769531 C 38.285156 25.023438 38.414062 25.617188 38.378906 25.9375 C 38.355469 26.160156 38.308594 26.285156 38.125 26.492188 C 37.722656 26.929688 36.644531 27.652344 35.550781 28.210938 C 34.015625 28.980469 31.179688 30.125 29.503906 30.394531 C 28.324219 30.589844 27.695312 30.425781 26.484375 30.292969 C 24.601562 30.089844 20.808594 29.0625 19.296875 28.996094 C 18.625 28.957031 18.242188 29.203125 17.835938 29.09375 C 17.550781 29.03125 17.277344 28.875 17.109375 28.660156 C 16.9375 28.449219 16.816406 28.082031 16.84375 27.824219 C 16.875 27.539062 17.003906 27.230469 17.1875 27.023438 C 17.402344 26.855469 17.570312 26.773438 18.003906 26.660156 C 19.289062 26.414062 25.027344 26.457031 26.320312 26.726562 C 26.730469 26.835938 26.917969 26.886719 27.125 27.070312 C 27.292969 27.28125 27.453125 27.589844 27.488281 27.851562 C 27.492188 28.144531 27.390625 28.488281 27.238281 28.695312 C 27.054688 28.902344 26.875 29.042969 26.480469 29.128906 C 25.355469 29.394531 20.597656 29.203125 19.4375 28.589844 C 18.921875 28.308594 18.613281 27.855469 18.59375 27.46875 C 18.566406 27.109375 18.789062 26.550781 19.332031 26.289062 C 20.699219 25.597656 26.527344 27.523438 29.496094 27.199219 C 31.914062 26.945312 34.402344 26.019531 35.914062 25.152344 C 36.910156 24.617188 37.554688 23.425781 38.121094 23.261719 C 38.449219 23.203125 38.699219 23.292969 38.941406 23.449219 C 39.152344 23.570312 39.386719 23.789062 39.457031 24.054688 C 39.546875 24.386719 39.484375 24.960938 39.324219 25.265625 C 39.203125 25.476562 38.957031 25.675781 38.691406 25.746094 C 38.359375 25.835938 37.789062 25.742188 37.519531 25.554688 C 37.273438 25.429688 37.113281 25.121094 37.042969 24.886719 C 36.972656 24.621094 36.976562 24.300781 37.066406 24.050781 C 37.226562 23.777344 37.691406 23.378906 37.992188 23.28125 C 38.257812 23.210938 38.570312 23.28125 38.820312 23.371094 C 39.03125 23.492188 39.300781 23.679688 39.40625 23.917969 C 39.535156 24.222656 39.578125 24.710938 39.402344 25.144531 C 39.097656 25.855469 37.988281 26.863281 36.851562 27.515625 C 35.367188 28.417969 32.28125 29.210938 30.894531 29.480469 C 30.203125 29.632812 30.039062 29.644531 29.234375 29.625 C 27.300781 29.605469 20.445312 29.410156 19.164062 28.464844 C 18.6875 28.089844 18.550781 27.558594 18.625 27.179688 C 18.699219 26.800781 19.0625 26.421875 19.597656 26.222656 C 20.808594 25.773438 25.191406 26.441406 26.320312 26.726562 C 26.730469 26.835938 26.917969 26.886719 27.125 27.070312 C 27.292969 27.28125 27.453125 27.589844 27.488281 27.851562 C 27.492188 28.144531 27.390625 28.488281 27.238281 28.695312 C 27.054688 28.902344 26.910156 29.015625 26.480469 29.128906 C 25.210938 29.507812 19.117188 29.460938 17.835938 29.09375 C 17.425781 28.988281 17.277344 28.875 17.109375 28.660156 C 16.9375 28.449219 16.8125 28.113281 16.84375 27.824219 C 16.878906 27.507812 17.152344 27.054688 17.433594 26.855469 C 17.714844 26.628906 18.007812 26.597656 18.5625 26.558594 C 20.050781 26.527344 24.601562 27.699219 26.714844 27.863281 C 28.0625 27.945312 28.890625 28.035156 30.015625 27.773438 C 31.402344 27.503906 33.074219 26.652344 34.335938 26.015625 C 35.425781 25.519531 36.542969 24.414062 37.191406 24.386719 C 37.546875 24.394531 37.847656 24.589844 38.023438 24.769531 C 38.226562 24.984375 38.382812 25.324219 38.414062 25.617188 C 38.417969 25.875 38.324219 26.15625 38.164062 26.429688 C 37.972656 26.730469 37.613281 27.046875 37.261719 27.332031 C 36.902344 27.648438 36.648438 27.910156 36.070312 28.171875 C 34.984375 28.667969 31.945312 29.335938 30.9375 29.386719 C 30.546875 29.410156 30.320312 29.417969 30.078125 29.296875 C 29.832031 29.171875 29.605469 28.890625 29.503906 28.621094 C 29.402344 28.382812 29.410156 27.996094 29.503906 27.75 C 29.625 27.503906 29.738281 27.355469 30.089844 27.101562 C 31.230469 26.386719 37.273438 24.234375 38.507812 24.464844 C 38.917969 24.542969 39.054688 24.785156 39.21875 25.027344 C 39.355469 25.269531 39.425781 25.535156 39.351562 25.914062 C 39.210938 26.609375 38.214844 28.050781 37.382812 28.863281 C 36.519531 29.703125 34.726562 31.058594 34.296875 30.851562 C 34.019531 30.722656 33.890625 29.839844 34.070312 29.664062 C 34.425781 29.347656 36.699219 30.402344 37.679688 30.894531 C 38.441406 31.300781 39.289062 31.8125 39.601562 32.234375 C 39.765625 32.476562 39.84375 32.679688 39.816406 32.902344 C 39.828125 33.097656 39.734375 33.378906 39.558594 33.519531 C 39.269531 33.777344 38.84375 33.859375 38.058594 33.9375 C 35.457031 34.140625 22.699219 32.753906 20.859375 32.167969 C 20.484375 32.03125 20.363281 31.953125 20.222656 31.773438 C 20.082031 31.597656 19.949219 31.324219 19.976562 31.070312 C 20.003906 30.816406 20.242188 30.390625 20.453125 30.25 C 20.664062 30.082031 20.890625 30.074219 21.183594 30.070312 C 21.757812 30.132812 23.195312 30.546875 23.5 31 C 23.695312 31.28125 23.601562 31.851562 23.449219 32.09375 C 23.292969 32.335938 23.058594 32.40625 22.597656 32.484375 C 20.59375 32.816406 8.203125 31.632812 6 30.8125 C 5.382812 30.550781 5.078125 30.386719 4.921875 30.046875 C 4.765625 29.675781 4.878906 28.945312 5.171875 28.625 C 5.394531 28.359375 6.199219 28.089844 6.4375 28.246094 C 6.707031 28.4375 7.003906 29.597656 6.570312 30.003906 C 5.015625 31.542969 -14.488281 28.101562 -17.328125 27.503906 C -17.925781 27.375 -18.1875 27.378906 -18.453125 27.15625 C -18.660156 26.972656 -18.785156 26.636719 -18.816406 26.339844 C -18.820312 26.082031 -18.75 25.734375 -18.5625 25.496094 C -18.34375 25.261719 -17.832031 24.996094 -17.507812 25 C -17.1875 25.035156 -16.820312 25.203125 -16.621094 25.449219 C -16.363281 25.738281 -16.148438 26.4375 -16.222656 26.816406 C -16.328125 27.191406 -16.59375 27.582031 -16.96875 27.769531 C -17.582031 28.058594 -18.855469 27.886719 -19.777344 27.753906 C -20.699219 27.621094 -21.386719 27.128906 -22.464844 26.945312 C -24.050781 26.710938 -27.386719 27.121094 -28.351562 26.789062 C -28.726562 26.683594 -28.90625 26.535156 -29.042969 26.328125 C -29.179688 26.085938 -29.273438 25.753906 -29.246094 25.5 C -29.21875 25.246094 -29.054688 24.9375 -28.84375 24.769531 C -28.628906 24.566406 -28.421875 24.460938 -27.953125 24.316406 C -26.695312 24 -21.410156 23.476562 -20.328125 23.917969 C -19.957031 24.054688 -19.820312 24.296875 -19.71875 24.566406 C -19.617188 24.800781 -19.5625 25.195312 -19.6875 25.441406 C -19.820312 25.78125 -20.179688 26.128906 -20.8125 26.285156 C -22.703125 26.789062 -29.40625 25.191406 -33.167969 24.492188 C -36.367188 23.917969 -39.972656 23.238281 -41.992188 22.535156 C -43.140625 22.117188 -43.726562 21.863281 -44.53125 21.257812 C -45.460938 20.609375 -46.757812 19.46875 -47.125 18.683594 C -47.359375 18.175781 -47.421875 17.554688 -47.222656 17.222656 C -46.996094 16.890625 -46.476562 16.5625 -45.867188 16.628906 C -44.5625 16.769531 -41.417969 20.207031 -39.855469 20.992188 C -39 21.4375 -38.117188 21.308594 -37.710938 21.742188 C -37.363281 22.101562 -37.179688 22.796875 -37.316406 23.171875 C -37.457031 23.574219 -38.015625 23.933594 -38.507812 24.042969 C -39.234375 24.1875 -40.503906 23.695312 -41.378906 23.40625 C -42.222656 23.15625 -42.957031 22.816406 -43.71875 22.378906 C -44.503906 21.90625 -45.308594 20.980469 -45.953125 20.683594 C -46.382812 20.476562 -47.109375 20.625 -47.15625 20.457031 C -47.203125 20.289062 -46.679688 19.636719 -46.257812 19.617188 C -45.445312 19.546875 -43.601562 21.585938 -42.316406 22.242188 C -41.246094 22.808594 -40.320312 23.167969 -39.253906 23.476562 C -38.132812 23.824219 -36.445312 23.75 -35.722656 24.214844 C -35.269531 24.523438 -34.9375 25.011719 -34.914062 25.398438 C -34.917969 25.753906 -35.164062 26.210938 -35.476562 26.4375 C -35.828125 26.6875 -36.34375 26.695312 -36.996094 26.753906 C -38.171875 26.886719 -40.421875 26.804688 -41.863281 26.679688 C -42.976562 26.558594 -44.019531 26.636719 -44.894531 26.089844 C -45.890625 25.433594 -46.652344 23.835938 -47.242188 22.738281 C -47.722656 21.816406 -48.28125 20.722656 -48.328125 19.972656 C -48.34375 19.519531 -48.234375 19.082031 -47.941406 18.789062 C -47.582031 18.441406 -46.875 18.164062 -46.140625 18.242188 C -44.992188 18.367188 -43.296875 20.292969 -41.792969 20.683594 C -40.445312 21.054688 -38.425781 20.308594 -37.601562 20.71875 C -37.144531 20.996094 -36.816406 21.515625 -36.792969 21.90625 C -36.765625 22.261719 -37.050781 22.78125 -37.328125 22.976562 C -37.539062 23.148438 -37.835938 23.179688 -38.191406 23.203125 C -38.871094 23.226562 -40.007812 22.976562 -40.90625 22.652344 C -41.96875 22.3125 -43.375 21.609375 -44.167969 21.167969 C -44.652344 20.890625 -44.964844 20.792969 -45.308594 20.398438 C -45.800781 19.863281 -46.550781 18.457031 -46.585938 17.871094 C -46.582031 17.550781 -46.425781 17.308594 -46.277344 17.132812 C -46.09375 16.925781 -45.820312 16.761719 -45.527344 16.761719 C -45.207031 16.761719 -44.402344 17.398438 -44.402344 17.398438 " clip-rule="nonzero"/></clipPath></defs><g clip-path="url(#66f1cd43f1)"><g clip-path="url(#2abc74e9fb)"><g clip-path="url(#e76905b5f2)"><g clip-path="url(#5edcbe80fa)"><path fill="#040606" d="M 67.578125 22.753906 L 53.894531 21.640625 C 50.800781 21.390625 48.085938 23.695312 47.824219 26.796875 L 46.429688 43.992188 C 46.175781 47.085938 48.492188 49.8125 51.585938 50.0625 L 65.265625 51.175781 C 56.808594 58.015625 44.410156 56.710938 37.566406 48.25 C 36.527344 46.976562 35.664062 45.585938 34.972656 44.085938 C 33.703125 41.316406 31.027344 39.449219 27.996094 39.203125 L -43.464844 33.394531 C -46.269531 33.175781 -49.003906 34.351562 -50.753906 36.550781 C -56.359375 43.617188 -66.628906 44.785156 -73.6875 39.1875 C -80.742188 33.574219 -81.921875 23.3125 -76.308594 16.257812 C -70.703125 9.191406 -60.441406 8.015625 -53.382812 13.628906 C -51.714844 14.945312 -50.320312 16.585938 -49.285156 18.453125 C -47.910156 20.902344 -45.414062 22.515625 -42.597656 22.746094 L 28.863281 28.550781 C 31.894531 28.796875 34.835938 27.386719 36.542969 24.863281 C 42.621094 15.832031 54.863281 13.449219 63.878906 19.523438 C 65.242188 20.449219 66.480469 21.527344 67.578125 22.753906 Z M 70.492188 21.839844 C 62.746094 12.109375 48.578125 10.496094 38.847656 18.242188 C 37.058594 19.675781 35.488281 21.375 34.195312 23.28125 C 33.066406 24.964844 31.113281 25.902344 29.089844 25.738281 L -42.371094 19.929688 C -44.234375 19.777344 -45.910156 18.710938 -46.824219 17.070312 C -51.976562 7.84375 -63.632812 4.53125 -72.871094 9.6875 C -82.101562 14.839844 -85.402344 26.503906 -80.253906 35.734375 C -75.097656 44.972656 -63.429688 48.277344 -54.207031 43.117188 C -52.027344 41.902344 -50.101562 40.265625 -48.550781 38.3125 C -47.382812 36.839844 -45.558594 36.058594 -43.691406 36.210938 L 27.769531 42.015625 C 29.789062 42.179688 31.566406 43.421875 32.410156 45.265625 C 37.605469 56.570312 50.984375 61.515625 62.273438 56.324219 C 65.054688 55.046875 67.542969 53.222656 69.597656 50.953125 C 70.105469 50.378906 70.058594 49.488281 69.492188 48.972656 C 69.257812 48.769531 68.964844 48.640625 68.652344 48.617188 L 51.8125 47.25 C 50.273438 47.125 49.125 45.769531 49.242188 44.222656 L 50.640625 27.027344 C 50.773438 25.480469 52.125 24.328125 53.664062 24.453125 L 70.511719 25.832031 C 71.28125 25.886719 71.960938 25.308594 72.023438 24.546875 C 72.050781 24.234375 71.972656 23.921875 71.796875 23.667969 C 71.402344 23.03125 70.960938 22.425781 70.492188 21.839844 " fill-opacity="1" fill-rule="nonzero"/></g></g></g></g><g fill="#000000" fill-opacity="1"><g transform="translate(71.949976, 32.497962)"><g><path d="M 17.023438 -12.96875 C 17.023438 -14.753906 15.5625 -16.210938 13.78125 -16.210938 L 0.8125 -16.210938 L 0.8125 0 L 4.054688 0 L 4.054688 -6.484375 L 5.957031 -6.484375 L 11.957031 -0.488281 C 12.28125 -0.164062 12.683594 0 13.132812 0 L 17.023438 0 L 17.023438 -3.242188 L 13.78125 -3.242188 L 10.539062 -6.484375 L 13.78125 -6.484375 C 15.5625 -6.484375 17.023438 -7.945312 17.023438 -9.726562 Z M 13.78125 -12.96875 L 13.78125 -9.726562 L 4.054688 -9.726562 L 4.054688 -12.96875 Z M 13.78125 -12.96875 "/></g></g></g><g fill="#000000" fill-opacity="1"><g transform="translate(89.782016, 32.497962)"><g><path d="M 4.054688 -16.210938 C 2.269531 -16.210938 0.8125 -14.753906 0.8125 -12.96875 L 0.8125 0 L 4.054688 0 L 4.054688 -6.484375 L 13.78125 -6.484375 L 13.78125 0 L 17.023438 0 L 17.023438 -12.96875 C 17.023438 -14.753906 15.5625 -16.210938 13.78125 -16.210938 Z M 4.054688 -12.96875 L 13.78125 -12.96875 L 13.78125 -9.726562 L 4.054688 -9.726562 Z M 4.054688 -12.96875 "/></g></g></g><g fill="#000000" fill-opacity="1"><g transform="translate(107.614056, 32.497962)"><g><path d="M 17.023438 -16.210938 L 4.054688 -16.210938 C 2.269531 -16.210938 0.8125 -14.753906 0.8125 -12.96875 L 0.8125 0 L 4.054688 0 L 4.054688 -6.484375 L 17.023438 -6.484375 L 17.023438 -9.726562 L 4.054688 -9.726562 L 4.054688 -12.96875 L 17.023438 -12.96875 Z M 17.023438 -16.210938 "/></g></g></g><g fill="#000000" fill-opacity="1"><g transform="translate(125.446096, 32.497962)"><g><path d="M 17.023438 -16.210938 L 0.8125 -16.210938 L 0.8125 -12.96875 L 7.296875 -12.96875 L 7.296875 0 L 10.539062 0 L 10.539062 -12.96875 L 17.023438 -12.96875 Z M 17.023438 -16.210938 "/></g></g></g><g fill="#000000" fill-opacity="1"><g transform="translate(68.897645, 56.563474)"><g><path d="M 13.78125 0 C 15.582031 0 17.023438 -1.480469 17.023438 -3.242188 L 17.023438 -12.96875 C 17.023438 -14.753906 15.5625 -16.210938 13.78125 -16.210938 L 4.054688 -16.210938 C 2.269531 -16.210938 0.8125 -14.753906 0.8125 -12.96875 L 0.8125 -3.242188 C 0.8125 -1.460938 2.269531 0 4.054688 0 Z M 4.054688 -12.96875 L 13.78125 -12.96875 L 13.78125 -3.242188 L 4.054688 -3.242188 Z M 4.054688 -12.96875 "/></g></g></g><g fill="#000000" fill-opacity="1"><g transform="translate(86.729685, 56.563474)"><g><path d="M 4.054688 0 L 4.054688 -10.679688 L 14.246094 -0.488281 C 14.550781 -0.183594 14.957031 0 15.402344 0 C 16.292969 0 17.023438 -0.730469 17.023438 -1.621094 L 17.023438 -16.210938 L 13.78125 -16.210938 L 13.78125 -5.53125 L 3.585938 -15.726562 C 3.28125 -16.027344 2.878906 -16.210938 2.433594 -16.210938 C 1.539062 -16.210938 0.8125 -15.480469 0.8125 -14.589844 L 0.8125 0 Z M 4.054688 0 "/></g></g></g><g fill="#000000" fill-opacity="1"><g transform="translate(104.561725, 56.563474)"><g><path d="M 4.054688 0 L 4.054688 -10.679688 L 14.246094 -0.488281 C 14.550781 -0.183594 14.957031 0 15.402344 0 C 16.292969 0 17.023438 -0.730469 17.023438 -1.621094 L 17.023438 -16.210938 L 13.78125 -16.210938 L 13.78125 -5.53125 L 3.585938 -15.726562 C 3.28125 -16.027344 2.878906 -16.210938 2.433594 -16.210938 C 1.539062 -16.210938 0.8125 -15.480469 0.8125 -14.589844 L 0.8125 0 Z M 4.054688 0 "/></g></g></g><g fill="#000000" fill-opacity="1"><g transform="translate(122.393765, 56.563474)"><g><path d="M 17.023438 -16.210938 L 4.054688 -16.210938 C 2.269531 -16.210938 0.8125 -14.753906 0.8125 -12.96875 L 0.8125 -3.242188 C 0.8125 -1.460938 2.269531 0 4.054688 0 L 17.023438 0 L 17.023438 -3.242188 L 4.054688 -3.242188 L 4.054688 -6.484375 L 17.023438 -6.484375 L 17.023438 -9.726562 L 4.054688 -9.726562 L 4.054688 -12.96875 L 17.023438 -12.96875 Z M 17.023438 -16.210938 "/></g></g></g><g fill="#000000" fill-opacity="1"><g transform="translate(140.225806, 56.563474)"><g><path d="M 17.023438 0 L 17.023438 -3.242188 L 4.054688 -3.242188 L 4.054688 -12.96875 L 17.023438 -12.96875 L 17.023438 -16.210938 L 4.054688 -16.210938 C 2.269531 -16.210938 0.8125 -14.753906 0.8125 -12.96875 L 0.8125 -3.242188 C 0.8125 -1.460938 2.269531 0 4.054688 0 Z M 17.023438 0 "/></g></g></g><g fill="#000000" fill-opacity="1"><g transform="translate(158.057846, 56.563474)"><g><path d="M 17.023438 -16.210938 L 0.8125 -16.210938 L 0.8125 -12.96875 L 7.296875 -12.96875 L 7.296875 0 L 10.539062 0 L 10.539062 -12.96875 L 17.023438 -12.96875 Z M 17.023438 -16.210938 "/></g></g></g><g clip-path="url(#eefc8d6852)"><g clip-path="url(#0e160af10c)"><g clip-path="url(#6889068c31)"><g clip-path="url(#ff7513b92c)"><path fill="#040606" d="M 67.523438 23.492188 L 54.28125 22.308594 C 51.289062 22.042969 48.640625 24.253906 48.367188 27.257812 L 46.878906 43.898438 C 46.613281 46.890625 48.832031 49.546875 51.828125 49.8125 L 65.066406 50.996094 C 56.824219 57.554688 44.828125 56.195312 38.265625 47.953125 C 37.269531 46.710938 36.445312 45.355469 35.785156 43.898438 C 34.578125 41.207031 32.003906 39.375 29.070312 39.113281 L -40.082031 32.941406 C -42.800781 32.707031 -45.457031 33.824219 -47.167969 35.941406 C -52.652344 42.738281 -62.605469 43.789062 -69.394531 38.316406 C -76.183594 32.824219 -77.246094 22.878906 -71.753906 16.089844 C -66.273438 9.292969 -56.328125 8.230469 -49.539062 13.722656 C -47.929688 15.011719 -46.59375 16.609375 -45.605469 18.425781 C -44.292969 20.808594 -41.886719 22.390625 -39.164062 22.632812 L 29.988281 28.808594 C 32.921875 29.070312 35.78125 27.726562 37.453125 25.296875 C 43.410156 16.597656 55.285156 14.382812 63.96875 20.339844 C 65.28125 21.242188 66.46875 22.296875 67.523438 23.492188 Z M 70.351562 22.628906 C 62.925781 13.148438 49.222656 11.476562 39.738281 18.902344 C 37.992188 20.277344 36.460938 21.910156 35.195312 23.746094 C 34.089844 25.367188 32.1875 26.257812 30.234375 26.085938 L -38.921875 19.910156 C -40.726562 19.75 -42.339844 18.703125 -43.210938 17.109375 C -48.128906 8.128906 -59.390625 4.835938 -68.378906 9.757812 C -77.355469 14.671875 -80.644531 25.945312 -75.726562 34.921875 C -70.804688 43.90625 -59.535156 47.195312 -50.5625 42.273438 C -48.441406 41.113281 -46.566406 39.542969 -45.046875 37.660156 C -43.90625 36.246094 -42.132812 35.503906 -40.328125 35.664062 L 28.828125 41.839844 C 30.78125 42.011719 32.492188 43.226562 33.296875 45.019531 C 38.238281 56.007812 51.15625 60.902344 62.128906 55.957031 C 64.832031 54.746094 67.253906 52.996094 69.261719 50.816406 C 69.757812 50.261719 69.722656 49.402344 69.175781 48.898438 C 68.949219 48.695312 68.667969 48.574219 68.363281 48.546875 L 52.070312 47.089844 C 50.582031 46.957031 49.476562 45.636719 49.601562 44.140625 L 51.089844 27.5 C 51.230469 26.003906 52.550781 24.898438 54.039062 25.03125 L 70.339844 26.496094 C 71.085938 26.554688 71.75 26 71.816406 25.261719 C 71.84375 24.960938 71.773438 24.660156 71.605469 24.410156 C 71.226562 23.792969 70.800781 23.199219 70.351562 22.628906 " fill-opacity="1" fill-rule="nonzero"/></g></g></g></g><g clip-path="url(#fcecedbe47)"><g clip-path="url(#c9aedb54c7)"><g clip-path="url(#2f3c716ce2)"><path fill="#040606" d="M -15.785156 37.644531 L -14.070312 21.855469 L 26.757812 26.289062 L 25.042969 42.078125 Z M -15.785156 37.644531 " fill-opacity="1" fill-rule="nonzero"/></g></g></g><g clip-path="url(#561ac700ea)"><g clip-path="url(#73094aa995)"><g clip-path="url(#3e0f47d022)"><path fill="#040606" d="M 8.515625 45.089844 L 11.269531 19.734375 L 49.5 23.886719 L 46.746094 49.242188 Z M 8.515625 45.089844 " fill-opacity="1" fill-rule="nonzero"/></g></g></g><g clip-path="url(#47485f9b02)"><g clip-path="url(#8149823f65)"><g clip-path="url(#5f4bf9e6cb)"><path fill="#040606" d="M 34.003906 54.925781 L 35.796875 38.4375 L 57.761719 40.820312 L 55.96875 57.308594 Z M 34.003906 54.925781 " fill-opacity="1" fill-rule="nonzero"/></g></g></g><g clip-path="url(#97d789a578)"><g clip-path="url(#1af5244de5)"><g clip-path="url(#10e72b7c21)"><path fill="#040606" d="M 47.808594 55.292969 L 48.835938 45.855469 L 65.097656 47.621094 L 64.074219 57.0625 Z M 47.808594 55.292969 " fill-opacity="1" fill-rule="nonzero"/></g></g></g><g clip-path="url(#47f06d6be7)"><g clip-path="url(#b03e4f3218)"><g clip-path="url(#851eb831d5)"><path fill="#040606" d="M 28.238281 51.589844 L 32.148438 15.546875 L 70.585938 19.71875 L 66.671875 55.761719 Z M 28.238281 51.589844 " fill-opacity="1" fill-rule="nonzero"/></g></g></g><g clip-path="url(#b1069a6f57)"><g clip-path="url(#30d4758065)"><g clip-path="url(#ed5118ead0)"><path fill="#040606" d="M 41.164062 26.144531 L 42.457031 14.246094 L 67.410156 16.957031 L 66.121094 28.851562 Z M 41.164062 26.144531 " fill-opacity="1" fill-rule="nonzero"/></g></g></g><g clip-path="url(#955c43c194)"><g clip-path="url(#23113244c0)"><g clip-path="url(#f2f0c9c529)"><path fill="#040606" d="M 38.519531 27.921875 L 40.152344 12.898438 L 70.253906 16.167969 L 68.621094 31.191406 Z M 38.519531 27.921875 " fill-opacity="1" fill-rule="nonzero"/></g></g></g><g clip-path="url(#2625c2b932)"><g clip-path="url(#f4611ee7d9)"><g clip-path="url(#5f0e412c2b)"><path fill="#040606" d="M 32.648438 53.746094 L 37.117188 12.585938 L 63.527344 15.453125 L 59.058594 56.613281 Z M 32.648438 53.746094 " fill-opacity="1" fill-rule="nonzero"/></g></g></g><g clip-path="url(#45b4d494e0)"><g clip-path="url(#43feb21d78)"><g clip-path="url(#9f7faf5e8f)"><path fill="#040606" d="M 32.703125 55.332031 L 34.160156 41.90625 L 66.679688 45.4375 L 65.222656 58.863281 Z M 32.703125 55.332031 " fill-opacity="1" fill-rule="nonzero"/></g></g></g><g clip-path="url(#af52fcfa92)"><g clip-path="url(#486ca9c7dc)"><g clip-path="url(#0fd000e5c7)"><path fill="#040606" d="M 34.253906 51.757812 L 38.480469 12.839844 L 68.394531 16.089844 L 64.171875 55.007812 Z M 34.253906 51.757812 " fill-opacity="1" fill-rule="nonzero"/></g></g></g><g clip-path="url(#59f952b730)"><g clip-path="url(#914a0bc0fd)"><g clip-path="url(#d1e131b77d)"><path fill="#040606" d="M 43.792969 32.269531 L 45.410156 17.375 L 61.992188 19.175781 L 60.375 34.070312 Z M 43.792969 32.269531 " fill-opacity="1" fill-rule="nonzero"/></g></g></g><g clip-path="url(#fc1dc7c0e6)"><g clip-path="url(#faeb335af3)"><g clip-path="url(#9d6907ccf6)"><path fill="#040606" d="M -50.804688 27 L -49.226562 12.488281 L 42.265625 22.421875 L 40.691406 36.933594 Z M -50.804688 27 " fill-opacity="1" fill-rule="nonzero"/></g></g></g></svg>