<svg xmlns="http://www.w3.org/2000/svg" xmlns:xlink="http://www.w3.org/1999/xlink" width="500" zoomAndPan="magnify" viewBox="0 0 375 374.999991" height="500" preserveAspectRatio="xMidYMid meet" version="1.0"><defs><g/><clipPath id="5eb95eea2b"><path d="M 0 85 L 157 85 L 157 191 L 0 191 Z M 0 85 " clip-rule="nonzero"/></clipPath><clipPath id="bd424f394d"><path d="M 14.855469 -48.539062 L 182.886719 149.210938 L -14.863281 317.242188 L -182.894531 119.492188 Z M 14.855469 -48.539062 " clip-rule="nonzero"/></clipPath><clipPath id="ae78e9d522"><path d="M 32.339844 -27.964844 L 182.886719 149.210938 L -14.863281 317.242188 L -165.414062 140.066406 Z M 32.339844 -27.964844 " clip-rule="nonzero"/></clipPath><clipPath id="16b5d1c6fd"><path d="M 14.859375 -48.539062 L 182.890625 149.214844 L -14.863281 317.246094 L -182.894531 119.492188 Z M 14.859375 -48.539062 " clip-rule="nonzero"/></clipPath></defs><g clip-path="url(#5eb95eea2b)"><g clip-path="url(#bd424f394d)"><g clip-path="url(#ae78e9d522)"><g clip-path="url(#16b5d1c6fd)"><path fill="#040606" d="M 147.046875 116.894531 L 118.917969 114.609375 C 112.554688 114.089844 106.972656 118.832031 106.441406 125.210938 L 103.566406 160.5625 C 103.050781 166.921875 107.808594 172.523438 114.167969 173.039062 L 142.296875 175.324219 C 124.90625 189.390625 99.417969 186.707031 85.351562 169.316406 C 83.214844 166.695312 81.4375 163.832031 80.015625 160.757812 C 77.40625 155.058594 71.910156 151.21875 65.675781 150.710938 L -81.234375 138.773438 C -87.007812 138.320312 -92.625 140.742188 -96.226562 145.261719 C -107.75 159.785156 -128.859375 162.1875 -143.371094 150.683594 C -157.875 139.140625 -160.296875 118.046875 -148.757812 103.539062 C -137.234375 89.015625 -116.136719 86.59375 -101.632812 98.136719 C -98.199219 100.84375 -95.335938 104.214844 -93.203125 108.054688 C -90.378906 113.09375 -85.242188 116.40625 -79.457031 116.878906 L 67.457031 128.816406 C 73.6875 129.320312 79.730469 126.417969 83.242188 121.234375 C 95.738281 102.667969 120.914062 97.765625 139.445312 110.257812 C 142.25 112.160156 144.789062 114.378906 147.046875 116.894531 Z M 153.039062 115.015625 C 137.113281 95.011719 107.988281 91.695312 87.984375 107.621094 C 84.300781 110.574219 81.074219 114.058594 78.421875 117.976562 C 76.097656 121.441406 72.082031 123.367188 67.925781 123.027344 L -78.984375 111.09375 C -82.820312 110.78125 -86.261719 108.585938 -88.144531 105.214844 C -98.734375 86.238281 -122.699219 79.433594 -141.691406 90.039062 C -160.667969 100.625 -167.457031 124.609375 -156.871094 143.585938 C -146.265625 162.578125 -122.285156 169.367188 -103.324219 158.761719 C -98.839844 156.261719 -94.882812 152.898438 -91.691406 148.878906 C -89.292969 145.855469 -85.542969 144.246094 -81.707031 144.558594 L 65.207031 156.496094 C 69.363281 156.835938 73.015625 159.382812 74.75 163.175781 C 85.425781 186.421875 112.929688 196.589844 136.144531 185.910156 C 141.859375 183.285156 146.976562 179.535156 151.199219 174.875 C 152.246094 173.6875 152.152344 171.863281 150.984375 170.800781 C 150.503906 170.378906 149.898438 170.117188 149.257812 170.066406 L 114.640625 167.253906 C 111.476562 166.996094 109.109375 164.214844 109.351562 161.03125 L 112.226562 125.679688 C 112.5 122.5 115.28125 120.136719 118.445312 120.394531 L 153.078125 123.222656 C 154.664062 123.335938 156.0625 122.148438 156.191406 120.582031 C 156.242188 119.941406 156.085938 119.300781 155.726562 118.773438 C 154.914062 117.46875 154.003906 116.21875 153.039062 115.015625 " fill-opacity="1" fill-rule="nonzero"/></g></g></g></g><g fill="#000000" fill-opacity="1"><g transform="translate(156.042305, 136.935413)"><g><path d="M 34.996094 -26.664062 C 34.996094 -30.328125 31.996094 -33.328125 28.328125 -33.328125 L 1.667969 -33.328125 L 1.667969 0 L 8.332031 0 L 8.332031 -13.332031 L 12.25 -13.332031 L 24.578125 -1 C 25.246094 -0.332031 26.078125 0 26.996094 0 L 34.996094 0 L 34.996094 -6.664062 L 28.328125 -6.664062 L 21.664062 -13.332031 L 28.328125 -13.332031 C 31.996094 -13.332031 34.996094 -16.332031 34.996094 -19.996094 Z M 28.328125 -26.664062 L 28.328125 -19.996094 L 8.332031 -19.996094 L 8.332031 -26.664062 Z M 28.328125 -26.664062 "/></g></g></g><g fill="#000000" fill-opacity="1"><g transform="translate(192.702311, 136.935413)"><g><path d="M 8.332031 -33.328125 C 4.664062 -33.328125 1.667969 -30.328125 1.667969 -26.664062 L 1.667969 0 L 8.332031 0 L 8.332031 -13.332031 L 28.328125 -13.332031 L 28.328125 0 L 34.996094 0 L 34.996094 -26.664062 C 34.996094 -30.328125 31.996094 -33.328125 28.328125 -33.328125 Z M 8.332031 -26.664062 L 28.328125 -26.664062 L 28.328125 -19.996094 L 8.332031 -19.996094 Z M 8.332031 -26.664062 "/></g></g></g><g fill="#000000" fill-opacity="1"><g transform="translate(229.362318, 136.935413)"><g><path d="M 34.996094 -33.328125 L 8.332031 -33.328125 C 4.664062 -33.328125 1.667969 -30.328125 1.667969 -26.664062 L 1.667969 0 L 8.332031 0 L 8.332031 -13.332031 L 34.996094 -13.332031 L 34.996094 -19.996094 L 8.332031 -19.996094 L 8.332031 -26.664062 L 34.996094 -26.664062 Z M 34.996094 -33.328125 "/></g></g></g><g fill="#000000" fill-opacity="1"><g transform="translate(266.022325, 136.935413)"><g><path d="M 34.996094 -33.328125 L 1.667969 -33.328125 L 1.667969 -26.664062 L 14.996094 -26.664062 L 14.996094 0 L 21.664062 0 L 21.664062 -26.664062 L 34.996094 -26.664062 Z M 34.996094 -33.328125 "/></g></g></g><g fill="#000000" fill-opacity="1"><g transform="translate(149.767158, 186.410486)"><g><path d="M 28.328125 0 C 32.035156 0 34.996094 -3.042969 34.996094 -6.664062 L 34.996094 -26.664062 C 34.996094 -30.328125 31.996094 -33.328125 28.328125 -33.328125 L 8.332031 -33.328125 C 4.664062 -33.328125 1.667969 -30.328125 1.667969 -26.664062 L 1.667969 -6.664062 C 1.667969 -3 4.664062 0 8.332031 0 Z M 8.332031 -26.664062 L 28.328125 -26.664062 L 28.328125 -6.664062 L 8.332031 -6.664062 Z M 8.332031 -26.664062 "/></g></g></g><g fill="#000000" fill-opacity="1"><g transform="translate(186.427164, 186.410486)"><g><path d="M 8.332031 0 L 8.332031 -21.957031 L 29.289062 -1 C 29.914062 -0.375 30.746094 0 31.660156 0 C 33.496094 0 34.996094 -1.5 34.996094 -3.332031 L 34.996094 -33.328125 L 28.328125 -33.328125 L 28.328125 -11.375 L 7.375 -32.328125 C 6.75 -32.953125 5.914062 -33.328125 5 -33.328125 C 3.167969 -33.328125 1.667969 -31.828125 1.667969 -29.996094 L 1.667969 0 Z M 8.332031 0 "/></g></g></g><g fill="#000000" fill-opacity="1"><g transform="translate(223.087171, 186.410486)"><g><path d="M 8.332031 0 L 8.332031 -21.957031 L 29.289062 -1 C 29.914062 -0.375 30.746094 0 31.660156 0 C 33.496094 0 34.996094 -1.5 34.996094 -3.332031 L 34.996094 -33.328125 L 28.328125 -33.328125 L 28.328125 -11.375 L 7.375 -32.328125 C 6.75 -32.953125 5.914062 -33.328125 5 -33.328125 C 3.167969 -33.328125 1.667969 -31.828125 1.667969 -29.996094 L 1.667969 0 Z M 8.332031 0 "/></g></g></g><g fill="#000000" fill-opacity="1"><g transform="translate(259.747178, 186.410486)"><g><path d="M 34.996094 -33.328125 L 8.332031 -33.328125 C 4.664062 -33.328125 1.667969 -30.328125 1.667969 -26.664062 L 1.667969 -6.664062 C 1.667969 -3 4.664062 0 8.332031 0 L 34.996094 0 L 34.996094 -6.664062 L 8.332031 -6.664062 L 8.332031 -13.332031 L 34.996094 -13.332031 L 34.996094 -19.996094 L 8.332031 -19.996094 L 8.332031 -26.664062 L 34.996094 -26.664062 Z M 34.996094 -33.328125 "/></g></g></g><g fill="#000000" fill-opacity="1"><g transform="translate(296.407184, 186.410486)"><g><path d="M 34.996094 0 L 34.996094 -6.664062 L 8.332031 -6.664062 L 8.332031 -26.664062 L 34.996094 -26.664062 L 34.996094 -33.328125 L 8.332031 -33.328125 C 4.664062 -33.328125 1.667969 -30.328125 1.667969 -26.664062 L 1.667969 -6.664062 C 1.667969 -3 4.664062 0 8.332031 0 Z M 34.996094 0 "/></g></g></g><g fill="#000000" fill-opacity="1"><g transform="translate(333.067191, 186.410486)"><g><path d="M 34.996094 -33.328125 L 1.667969 -33.328125 L 1.667969 -26.664062 L 14.996094 -26.664062 L 14.996094 0 L 21.664062 0 L 21.664062 -26.664062 L 34.996094 -26.664062 Z M 34.996094 -33.328125 "/></g></g></g></svg>