<svg xmlns="http://www.w3.org/2000/svg" xmlns:xlink="http://www.w3.org/1999/xlink" width="250" zoomAndPan="magnify" viewBox="0 0 187.5 225" height="300" preserveAspectRatio="xMidYMid meet" version="1.0"><defs><clipPath id="4a70bef4c9"><path d="M 0 0.300781 L 187 0.300781 L 187 224.699219 L 0 224.699219 Z M 0 0.300781 " clip-rule="nonzero"/></clipPath><clipPath id="18cc2778e5"><path d="M 61.917969 138.441406 L 124.75 138.441406 L 124.75 187.808594 L 61.917969 187.808594 Z M 61.917969 138.441406 " clip-rule="nonzero"/></clipPath></defs><g clip-path="url(#4a70bef4c9)"><rect x="-18.75" width="225" fill="#919191" y="-22.5" height="270" fill-opacity="1"/></g><g clip-path="url(#18cc2778e5)"><path fill="#000000" d="M 81.167969 151.734375 C 82.035156 145.765625 87.152344 141.183594 93.335938 141.183594 C 99.515625 141.183594 104.636719 145.765625 105.5 151.734375 C 105.558594 152.140625 105.796875 152.503906 106.152344 152.714844 C 106.503906 152.925781 106.933594 152.964844 107.320312 152.824219 C 108.496094 152.390625 109.761719 152.152344 111.089844 152.152344 C 117.125 152.152344 122.015625 157.066406 122.015625 163.125 C 122.015625 169.183594 117.125 174.09375 111.089844 174.09375 L 101.527344 174.09375 C 100.773438 174.09375 100.164062 174.710938 100.164062 175.464844 C 100.164062 176.222656 100.773438 176.835938 101.527344 176.835938 L 111.089844 176.835938 C 118.632812 176.835938 124.75 170.699219 124.75 163.125 C 124.75 155.550781 118.632812 149.410156 111.089844 149.410156 C 109.992188 149.410156 108.921875 149.542969 107.894531 149.789062 C 106.238281 143.265625 100.347656 138.441406 93.335938 138.441406 C 86.320312 138.441406 80.429688 143.265625 78.773438 149.789062 C 77.75 149.542969 76.675781 149.410156 75.578125 149.410156 C 68.035156 149.410156 61.917969 155.550781 61.917969 163.125 C 61.917969 170.699219 68.035156 176.835938 75.578125 176.835938 L 85.140625 176.835938 C 85.894531 176.835938 86.503906 176.222656 86.503906 175.464844 C 86.503906 174.710938 85.894531 174.09375 85.140625 174.09375 L 75.578125 174.09375 C 69.542969 174.09375 64.652344 169.183594 64.652344 163.125 C 64.652344 157.066406 69.542969 152.152344 75.578125 152.152344 C 76.90625 152.152344 78.175781 152.390625 79.347656 152.824219 C 79.734375 152.964844 80.164062 152.925781 80.515625 152.714844 C 80.871094 152.503906 81.109375 152.140625 81.167969 151.734375 Z M 102.496094 163.527344 L 94.300781 155.296875 C 93.765625 154.761719 92.902344 154.761719 92.367188 155.296875 L 84.171875 163.527344 C 83.640625 164.0625 83.640625 164.929688 84.171875 165.464844 C 84.707031 166 85.570312 166 86.105469 165.464844 L 91.96875 159.578125 L 91.96875 186.4375 C 91.96875 187.195312 92.578125 187.808594 93.335938 187.808594 C 94.089844 187.808594 94.699219 187.195312 94.699219 186.4375 L 94.699219 159.578125 L 100.5625 165.464844 C 101.097656 166 101.960938 166 102.496094 165.464844 C 103.027344 164.929688 103.027344 164.0625 102.496094 163.527344 Z M 102.496094 163.527344 " fill-opacity="1" fill-rule="evenodd"/></g></svg>