<svg xmlns="http://www.w3.org/2000/svg" xmlns:xlink="http://www.w3.org/1999/xlink" width="500" zoomAndPan="magnify" viewBox="0 0 375 374.999991" height="500" preserveAspectRatio="xMidYMid meet" version="1.0"><defs><g/><clipPath id="b244efcdd2"><path d="M 196 47 L 368 47 L 368 211 L 196 211 Z M 196 47 " clip-rule="nonzero"/></clipPath><clipPath id="acae04ee12"><path d="M 188.34375 116.371094 L 263.972656 29.074219 L 374.507812 124.835938 L 298.878906 212.132812 Z M 188.34375 116.371094 " clip-rule="nonzero"/></clipPath><clipPath id="f61c53314c"><path d="M 188.34375 116.371094 L 263.972656 29.074219 L 374.507812 124.835938 L 298.878906 212.132812 Z M 188.34375 116.371094 " clip-rule="nonzero"/></clipPath><clipPath id="9a1df9ca54"><path d="M 237 94 L 246 94 L 246 102 L 237 102 Z M 237 94 " clip-rule="nonzero"/></clipPath><clipPath id="f5577d6bcd"><path d="M 228.117188 103.449219 L 261.628906 71.210938 L 287.109375 97.695312 L 253.597656 129.933594 Z M 228.117188 103.449219 " clip-rule="nonzero"/></clipPath><clipPath id="2fed15fba3"><path d="M 228.117188 103.449219 L 261.628906 71.210938 L 287.109375 97.695312 L 253.597656 129.933594 Z M 228.117188 103.449219 " clip-rule="nonzero"/></clipPath><clipPath id="15ff2e1495"><path d="M 249 82 L 257 82 L 257 90 L 249 90 Z M 249 82 " clip-rule="nonzero"/></clipPath><clipPath id="effd5bc5d3"><path d="M 228.117188 103.449219 L 261.628906 71.210938 L 287.109375 97.695312 L 253.597656 129.933594 Z M 228.117188 103.449219 " clip-rule="nonzero"/></clipPath><clipPath id="050e84a2ee"><path d="M 228.117188 103.449219 L 261.628906 71.210938 L 287.109375 97.695312 L 253.597656 129.933594 Z M 228.117188 103.449219 " clip-rule="nonzero"/></clipPath><clipPath id="8e7376510d"><path d="M 242 79 L 277 79 L 277 122 L 242 122 Z M 242 79 " clip-rule="nonzero"/></clipPath><clipPath id="2c47fef3d8"><path d="M 228.117188 103.449219 L 261.628906 71.210938 L 287.109375 97.695312 L 253.597656 129.933594 Z M 228.117188 103.449219 " clip-rule="nonzero"/></clipPath><clipPath id="af6d52161a"><path d="M 228.117188 103.449219 L 261.628906 71.210938 L 287.109375 97.695312 L 253.597656 129.933594 Z M 228.117188 103.449219 " clip-rule="nonzero"/></clipPath><clipPath id="6661615ad5"><path d="M 22 25 L 234 25 L 234 224 L 22 224 Z M 22 25 " clip-rule="nonzero"/></clipPath><clipPath id="562dc5ef3c"><path d="M 197.097656 22.9375 L 236.621094 180.816406 L 60.554688 224.894531 L 21.03125 67.019531 Z M 197.097656 22.9375 " clip-rule="nonzero"/></clipPath><clipPath id="68fba5a510"><path d="M 197.097656 22.9375 L 236.621094 180.816406 L 60.554688 224.894531 L 21.03125 67.019531 Z M 197.097656 22.9375 " clip-rule="nonzero"/></clipPath><clipPath id="4bb5c3b699"><path d="M 30 99 L 120 99 L 120 161 L 30 161 Z M 30 99 " clip-rule="nonzero"/></clipPath><clipPath id="005cd3a736"><path d="M 28.523438 103.296875 L 116.773438 96.660156 L 121.273438 156.492188 L 33.023438 163.128906 Z M 28.523438 103.296875 " clip-rule="nonzero"/></clipPath><clipPath id="9885e928e1"><path d="M 28.523438 103.296875 L 116.773438 96.660156 L 121.273438 156.492188 L 33.023438 163.128906 Z M 28.523438 103.296875 " clip-rule="nonzero"/></clipPath></defs><g clip-path="url(#b244efcdd2)"><g clip-path="url(#acae04ee12)"><g clip-path="url(#f61c53314c)"><path fill="#ffffff" d="M 309.875 83.933594 C 309.535156 81.003906 308.894531 78.140625 307.949219 75.34375 C 307.003906 72.546875 305.773438 69.882812 304.265625 67.347656 C 302.757812 64.8125 300.996094 62.460938 298.992188 60.296875 C 296.984375 58.132812 294.773438 56.203125 292.359375 54.507812 C 291.261719 53.769531 290.132812 53.085938 288.972656 52.453125 C 287.8125 51.824219 286.625 51.246094 285.414062 50.71875 C 284.199219 50.195312 282.964844 49.730469 281.707031 49.316406 C 280.453125 48.90625 279.179688 48.554688 277.894531 48.257812 C 276.605469 47.964844 275.304688 47.726562 273.996094 47.550781 C 272.6875 47.375 271.371094 47.257812 270.050781 47.203125 C 268.730469 47.144531 267.410156 47.148438 266.089844 47.210938 C 264.769531 47.277344 263.457031 47.402344 262.148438 47.585938 C 260.839844 47.769531 259.542969 48.011719 258.257812 48.316406 C 256.96875 48.617188 255.699219 48.976562 254.445312 49.394531 C 253.191406 49.816406 251.960938 50.289062 250.75 50.820312 C 249.542969 51.351562 248.359375 51.9375 247.199219 52.574219 C 246.042969 53.214844 244.917969 53.90625 243.824219 54.644531 C 242.730469 55.386719 241.675781 56.179688 240.652344 57.015625 C 239.632812 57.855469 238.648438 58.738281 237.707031 59.664062 C 236.769531 60.59375 235.871094 61.5625 235.019531 62.570312 L 200.9375 101.910156 C 200.527344 102.382812 200.140625 102.878906 199.78125 103.390625 C 199.417969 103.902344 199.082031 104.433594 198.769531 104.980469 C 198.460938 105.523438 198.179688 106.085938 197.921875 106.660156 C 197.667969 107.230469 197.441406 107.816406 197.242188 108.414062 C 197.046875 109.007812 196.878906 109.613281 196.738281 110.226562 C 196.601562 110.835938 196.492188 111.457031 196.414062 112.078125 C 196.335938 112.703125 196.289062 113.328125 196.273438 113.953125 C 196.253906 114.582031 196.269531 115.207031 196.3125 115.835938 C 196.359375 116.460938 196.433594 117.085938 196.539062 117.703125 C 196.644531 118.320312 196.78125 118.933594 196.949219 119.539062 C 197.113281 120.144531 197.308594 120.742188 197.535156 121.328125 C 197.757812 121.914062 198.011719 122.488281 198.292969 123.050781 C 198.570312 123.609375 198.878906 124.15625 199.214844 124.6875 C 199.546875 125.21875 199.90625 125.734375 200.292969 126.230469 C 200.675781 126.726562 201.085938 127.203125 201.515625 127.660156 C 201.949219 128.113281 202.402344 128.546875 202.875 128.960938 L 295.636719 209.324219 C 296.023438 209.65625 296.453125 209.902344 296.9375 210.066406 C 297.421875 210.226562 297.914062 210.289062 298.421875 210.25 C 298.929688 210.214844 299.410156 210.082031 299.867188 209.855469 C 300.320312 209.628906 300.714844 209.320312 301.046875 208.9375 C 301.378906 208.550781 301.628906 208.117188 301.789062 207.636719 C 301.949219 207.152344 302.011719 206.660156 301.972656 206.152344 C 301.9375 205.644531 301.804688 205.164062 301.578125 204.707031 C 301.351562 204.253906 301.042969 203.859375 300.660156 203.527344 L 257.179688 165.855469 L 288.570312 129.621094 L 363.171875 134.882812 C 363.679688 134.917969 364.171875 134.855469 364.65625 134.695312 C 365.136719 134.535156 365.570312 134.289062 365.957031 133.953125 C 366.339844 133.621094 366.644531 133.226562 366.871094 132.773438 C 367.101562 132.316406 367.230469 131.835938 367.269531 131.328125 C 367.304688 130.820312 367.242188 130.328125 367.082031 129.84375 C 366.921875 129.363281 366.675781 128.929688 366.339844 128.542969 C 366.007812 128.160156 365.613281 127.855469 365.160156 127.625 C 364.707031 127.398438 364.222656 127.265625 363.71875 127.230469 L 294.847656 122.375 L 299.871094 116.578125 C 301.792969 114.351562 303.464844 111.957031 304.886719 109.382812 C 306.3125 106.8125 307.453125 104.121094 308.3125 101.308594 C 309.175781 98.5 309.738281 95.628906 310 92.703125 C 310.261719 89.777344 310.222656 86.851562 309.875 83.933594 Z M 251.378906 160.832031 L 207.898438 123.164062 C 207.328125 122.667969 206.8125 122.121094 206.347656 121.523438 C 205.886719 120.929688 205.484375 120.292969 205.148438 119.617188 C 204.808594 118.941406 204.542969 118.238281 204.339844 117.511719 C 204.140625 116.78125 204.015625 116.039062 203.960938 115.289062 C 203.90625 114.535156 203.925781 113.78125 204.019531 113.035156 C 204.113281 112.285156 204.28125 111.550781 204.519531 110.835938 C 204.757812 110.117188 205.0625 109.429688 205.4375 108.773438 C 205.808594 108.117188 206.242188 107.503906 206.734375 106.933594 L 240.816406 67.59375 C 241.511719 66.761719 242.246094 65.960938 243.015625 65.195312 C 243.785156 64.429688 244.589844 63.703125 245.425781 63.007812 C 246.261719 62.316406 247.128906 61.664062 248.023438 61.050781 C 248.921875 60.4375 249.84375 59.867188 250.789062 59.335938 C 251.738281 58.808594 252.710938 58.324219 253.703125 57.882812 C 254.695312 57.441406 255.703125 57.046875 256.734375 56.699219 C 257.761719 56.351562 258.804688 56.050781 259.859375 55.796875 C 260.914062 55.542969 261.980469 55.339844 263.054688 55.183594 C 264.128906 55.027344 265.210938 54.917969 266.292969 54.863281 C 267.378906 54.804688 268.460938 54.796875 269.546875 54.835938 C 270.632812 54.878906 271.714844 54.96875 272.789062 55.109375 C 273.867188 55.25 274.933594 55.441406 275.996094 55.675781 C 277.054688 55.914062 278.101562 56.199219 279.132812 56.535156 C 280.167969 56.867188 281.183594 57.246094 282.183594 57.671875 C 283.179688 58.097656 284.160156 58.570312 285.113281 59.085938 C 286.070312 59.597656 287 60.15625 287.90625 60.757812 C 288.886719 61.449219 289.828125 62.195312 290.734375 62.984375 C 291.636719 63.777344 292.496094 64.613281 293.3125 65.496094 C 294.128906 66.378906 294.898438 67.300781 295.617188 68.261719 C 296.335938 69.226562 297.007812 70.222656 297.621094 71.253906 C 298.238281 72.285156 298.796875 73.347656 299.304688 74.4375 C 299.808594 75.527344 300.253906 76.640625 300.644531 77.777344 C 301.03125 78.917969 301.363281 80.070312 301.628906 81.242188 C 301.898438 82.414062 302.105469 83.59375 302.25 84.789062 C 302.394531 85.980469 302.476562 87.179688 302.496094 88.378906 C 302.515625 89.582031 302.472656 90.78125 302.367188 91.976562 C 302.261719 93.175781 302.09375 94.363281 301.867188 95.542969 C 301.636719 96.722656 301.347656 97.886719 300.996094 99.035156 C 300.644531 100.1875 300.234375 101.3125 299.765625 102.421875 C 299.296875 103.527344 298.769531 104.605469 298.191406 105.65625 C 297.609375 106.710938 296.972656 107.726562 296.285156 108.714844 C 295.597656 109.699219 294.859375 110.644531 294.074219 111.554688 Z M 251.378906 160.832031 " fill-opacity="1" fill-rule="nonzero"/></g></g></g><g clip-path="url(#9a1df9ca54)"><g clip-path="url(#f5577d6bcd)"><g clip-path="url(#2fed15fba3)"><path fill="#ffffff" d="M 237.875 96.375 C 238.535156 97.375 239.550781 98.226562 240.402344 99.089844 C 241.296875 99.996094 242.191406 100.859375 243.140625 101.6875 C 244.058594 102.484375 245.664062 101.179688 245.003906 100.132812 C 244.273438 98.941406 243.492188 97.925781 242.511719 96.953125 C 241.539062 96.011719 240.492188 94.988281 239.246094 94.445312 C 238.761719 94.234375 238.125 94.476562 237.839844 94.882812 C 237.496094 95.367188 237.585938 95.910156 237.875 96.375 Z M 237.875 96.375 " fill-opacity="1" fill-rule="nonzero"/></g></g></g><g clip-path="url(#15ff2e1495)"><g clip-path="url(#effd5bc5d3)"><g clip-path="url(#050e84a2ee)"><path fill="#ffffff" d="M 249.902344 84.238281 C 250.214844 85.242188 251.320312 86.121094 252.074219 86.835938 C 252.949219 87.675781 253.824219 88.378906 254.855469 89 C 256.261719 89.851562 257.546875 88.285156 256.726562 86.980469 C 256.050781 85.890625 255.265625 85.050781 254.28125 84.234375 C 253.394531 83.492188 252.367188 82.585938 251.183594 82.417969 C 250.128906 82.273438 249.628906 83.386719 249.902344 84.238281 Z M 249.902344 84.238281 " fill-opacity="1" fill-rule="nonzero"/></g></g></g><g clip-path="url(#8e7376510d)"><g clip-path="url(#2c47fef3d8)"><g clip-path="url(#af6d52161a)"><path fill="#ffffff" d="M 242.878906 118.664062 C 244.488281 120.40625 246.898438 121.1875 249.167969 121.640625 C 251.402344 122.085938 253.738281 122.105469 255.988281 121.75 C 260.28125 121.066406 264.410156 119.058594 267.664062 116.1875 C 270.964844 113.273438 273.585938 109.488281 274.886719 105.269531 C 276.191406 101.070312 276.367188 96.5625 275.507812 92.246094 C 275.03125 89.867188 274.242188 87.53125 273.171875 85.355469 C 272.628906 84.222656 271.996094 83.109375 271.28125 82.074219 C 270.566406 81.058594 269.777344 79.875 268.667969 79.289062 C 267.613281 78.734375 266.507812 79.578125 266.894531 80.753906 C 267.210938 81.695312 267.863281 82.441406 268.390625 83.285156 C 268.90625 84.117188 269.414062 84.960938 269.863281 85.835938 C 270.730469 87.507812 271.429688 89.277344 271.894531 91.097656 C 272.847656 94.78125 273.046875 98.710938 272.199219 102.449219 C 270.5 109.839844 264.707031 116.195312 257.398438 118.386719 C 255.261719 119.023438 252.992188 119.3125 250.78125 119.195312 C 248.273438 119.054688 246.089844 118.191406 243.726562 117.433594 C 243.050781 117.234375 242.335938 118.074219 242.878906 118.664062 Z M 242.878906 118.664062 " fill-opacity="1" fill-rule="nonzero"/></g></g></g><g clip-path="url(#6661615ad5)"><g clip-path="url(#562dc5ef3c)"><g clip-path="url(#68fba5a510)"><path fill="#ffffff" d="M 25.679688 66.316406 L 187.835938 25.71875 C 188.695312 25.492188 189.570312 25.402344 190.457031 25.445312 C 191.347656 25.492188 192.207031 25.671875 193.039062 25.980469 C 193.871094 26.292969 194.636719 26.722656 195.335938 27.273438 C 196.039062 27.820312 196.636719 28.464844 197.136719 29.199219 C 197.628906 29.914062 198.003906 30.683594 198.257812 31.515625 C 198.507812 32.34375 198.628906 33.195312 198.621094 34.0625 C 198.609375 34.929688 198.46875 35.773438 198.195312 36.597656 C 197.921875 37.421875 197.53125 38.183594 197.023438 38.886719 L 138.507812 121.367188 L 228.980469 166.539062 C 229.761719 166.917969 230.464844 167.40625 231.09375 168.007812 C 231.722656 168.605469 232.246094 169.285156 232.664062 170.046875 C 233.082031 170.804688 233.375 171.613281 233.542969 172.464844 C 233.710938 173.316406 233.746094 174.171875 233.648438 175.035156 C 233.554688 175.917969 233.328125 176.765625 232.96875 177.582031 C 232.609375 178.394531 232.136719 179.136719 231.550781 179.800781 C 230.960938 180.46875 230.285156 181.03125 229.523438 181.492188 C 228.761719 181.949219 227.949219 182.28125 227.085938 182.488281 L 64.929688 223.085938 C 64.628906 223.160156 64.320312 223.207031 64.007812 223.21875 C 63.695312 223.234375 63.386719 223.21875 63.078125 223.175781 C 62.769531 223.128906 62.46875 223.054688 62.175781 222.949219 C 61.878906 222.84375 61.597656 222.710938 61.332031 222.550781 C 61.0625 222.390625 60.816406 222.203125 60.582031 221.996094 C 60.351562 221.785156 60.144531 221.554688 59.957031 221.304688 C 59.773438 221.054688 59.613281 220.785156 59.480469 220.503906 C 59.34375 220.222656 59.242188 219.929688 59.164062 219.628906 C 59.089844 219.324219 59.042969 219.019531 59.027344 218.707031 C 59.011719 218.394531 59.027344 218.082031 59.074219 217.773438 C 59.121094 217.464844 59.195312 217.164062 59.300781 216.871094 C 59.40625 216.578125 59.539062 216.296875 59.699219 216.027344 C 59.859375 215.761719 60.042969 215.511719 60.253906 215.28125 C 60.464844 215.050781 60.695312 214.839844 60.945312 214.65625 C 61.195312 214.46875 61.460938 214.308594 61.746094 214.175781 C 62.027344 214.042969 62.320312 213.9375 62.621094 213.863281 L 222.375 173.867188 L 133.203125 129.34375 C 132.671875 129.054688 132.171875 128.714844 131.707031 128.324219 C 131.242188 127.933594 130.824219 127.496094 130.453125 127.015625 C 130.082031 126.539062 129.761719 126.027344 129.496094 125.480469 C 129.230469 124.933594 129.023438 124.367188 128.875 123.777344 C 128.726562 123.1875 128.640625 122.589844 128.621094 121.984375 C 128.597656 121.375 128.636719 120.773438 128.738281 120.175781 C 128.84375 119.578125 129.007812 118.996094 129.230469 118.433594 C 129.453125 117.867188 129.734375 117.332031 130.070312 116.828125 L 188.25 34.824219 L 27.992188 75.539062 C 27.6875 75.613281 27.378906 75.660156 27.070312 75.671875 C 26.757812 75.6875 26.445312 75.671875 26.136719 75.628906 C 25.828125 75.582031 25.527344 75.507812 25.234375 75.402344 C 24.941406 75.296875 24.660156 75.164062 24.390625 75.003906 C 24.125 74.84375 23.875 74.65625 23.644531 74.449219 C 23.414062 74.238281 23.203125 74.007812 23.019531 73.757812 C 22.832031 73.507812 22.671875 73.242188 22.539062 72.957031 C 22.40625 72.675781 22.300781 72.382812 22.226562 72.082031 C 22.148438 71.777344 22.105469 71.472656 22.089844 71.160156 C 22.074219 70.847656 22.089844 70.535156 22.132812 70.226562 C 22.179688 69.917969 22.253906 69.617188 22.359375 69.324219 C 22.464844 69.03125 22.597656 68.75 22.757812 68.480469 C 22.917969 68.214844 23.105469 67.964844 23.3125 67.734375 C 23.523438 67.503906 23.753906 67.292969 24.003906 67.109375 C 24.253906 66.921875 24.523438 66.761719 24.804688 66.628906 C 25.085938 66.496094 25.378906 66.390625 25.679688 66.316406 Z M 25.679688 66.316406 " fill-opacity="1" fill-rule="nonzero"/></g></g></g><g clip-path="url(#4bb5c3b699)"><g clip-path="url(#005cd3a736)"><g clip-path="url(#9885e928e1)"><path fill="#ffffff" d="M 72.644531 99.980469 C 52.589844 101.488281 36.40625 115.25 30.789062 133.378906 C 39.050781 150.460938 57.117188 161.648438 77.167969 160.140625 C 97.222656 158.628906 113.40625 144.871094 119.023438 126.742188 C 110.761719 109.65625 92.71875 98.472656 72.644531 99.980469 Z M 76.414062 150.113281 C 65.34375 150.945312 55.6875 142.636719 54.851562 131.566406 C 54.019531 120.5 62.328125 110.839844 73.398438 110.007812 C 84.46875 109.175781 94.125 117.484375 94.957031 128.550781 C 95.792969 139.621094 87.484375 149.28125 76.414062 150.113281 Z M 74 118.027344 C 67.363281 118.527344 62.375 124.328125 62.875 130.964844 C 63.375 137.601562 69.171875 142.589844 75.8125 142.089844 C 82.449219 141.59375 87.4375 135.792969 86.9375 129.15625 C 86.4375 122.515625 80.640625 117.527344 74 118.027344 Z M 74 118.027344 " fill-opacity="1" fill-rule="nonzero"/></g></g></g><g fill="#ffffff" fill-opacity="1"><g transform="translate(48.5418, 312.887457)"><g><path d="M 17.03125 0 L 7.078125 -26.03125 L 6.90625 -26.03125 C 7.09375 -23.96875 7.1875 -21.519531 7.1875 -18.6875 L 7.1875 0 L 4.03125 0 L 4.03125 -29.375 L 9.1875 -29.375 L 18.484375 -5.140625 L 18.640625 -5.140625 L 28.015625 -29.375 L 33.125 -29.375 L 33.125 0 L 29.703125 0 L 29.703125 -18.921875 C 29.703125 -21.085938 29.796875 -23.445312 29.984375 -26 L 29.828125 -26 L 19.78125 0 Z M 17.03125 0 "/></g></g></g><g fill="#ffffff" fill-opacity="1"><g transform="translate(99.697909, 312.887457)"><g><path d="M 4.03125 0 L 4.03125 -29.375 L 7.453125 -29.375 L 7.453125 0 Z M 4.03125 0 "/></g></g></g><g fill="#ffffff" fill-opacity="1"><g transform="translate(125.191585, 312.887457)"><g><path d="M 16.609375 -26.734375 C 13.378906 -26.734375 10.832031 -25.660156 8.96875 -23.515625 C 7.101562 -21.367188 6.171875 -18.425781 6.171875 -14.6875 C 6.171875 -10.84375 7.070312 -7.867188 8.875 -5.765625 C 10.675781 -3.671875 13.242188 -2.625 16.578125 -2.625 C 18.617188 -2.625 20.953125 -2.992188 23.578125 -3.734375 L 23.578125 -0.75 C 21.546875 0.0195312 19.035156 0.40625 16.046875 0.40625 C 11.722656 0.40625 8.382812 -0.90625 6.03125 -3.53125 C 3.6875 -6.15625 2.515625 -9.882812 2.515625 -14.71875 C 2.515625 -17.75 3.078125 -20.398438 4.203125 -22.671875 C 5.335938 -24.953125 6.972656 -26.707031 9.109375 -27.9375 C 11.242188 -29.175781 13.757812 -29.796875 16.65625 -29.796875 C 19.726562 -29.796875 22.421875 -29.234375 24.734375 -28.109375 L 23.28125 -25.171875 C 21.0625 -26.210938 18.835938 -26.734375 16.609375 -26.734375 Z M 16.609375 -26.734375 "/></g></g></g><g fill="#ffffff" fill-opacity="1"><g transform="translate(165.163041, 312.887457)"><g><path d="M 26.328125 0 L 22.921875 0 L 22.921875 -13.828125 L 7.453125 -13.828125 L 7.453125 0 L 4.03125 0 L 4.03125 -29.375 L 7.453125 -29.375 L 7.453125 -16.875 L 22.921875 -16.875 L 22.921875 -29.375 L 26.328125 -29.375 Z M 26.328125 0 "/></g></g></g><g fill="#ffffff" fill-opacity="1"><g transform="translate(209.532059, 312.887457)"><g><path d="M 22.5 0 L 18.84375 -9.34375 L 7.078125 -9.34375 L 3.453125 0 L 0 0 L 11.609375 -29.484375 L 14.484375 -29.484375 L 26.03125 0 Z M 17.78125 -12.421875 L 14.359375 -21.515625 C 13.921875 -22.660156 13.46875 -24.070312 13 -25.75 C 12.707031 -24.46875 12.285156 -23.054688 11.734375 -21.515625 L 8.28125 -12.421875 Z M 17.78125 -12.421875 "/></g></g></g><g fill="#ffffff" fill-opacity="1"><g transform="translate(249.583827, 312.887457)"><g><path d="M 20.40625 0 L 4.03125 0 L 4.03125 -29.375 L 20.40625 -29.375 L 20.40625 -26.328125 L 7.453125 -26.328125 L 7.453125 -16.875 L 19.625 -16.875 L 19.625 -13.859375 L 7.453125 -13.859375 L 7.453125 -3.046875 L 20.40625 -3.046875 Z M 20.40625 0 "/></g></g></g><g fill="#ffffff" fill-opacity="1"><g transform="translate(286.483038, 312.887457)"><g><path d="M 4.03125 0 L 4.03125 -29.375 L 7.453125 -29.375 L 7.453125 -3.09375 L 20.40625 -3.09375 L 20.40625 0 Z M 4.03125 0 "/></g></g></g><g fill="#ffffff" fill-opacity="1"><g transform="translate(105.952537, 346.704651)"><g><path d="M 4.53125 -7.4375 L 4.53125 0 L 2.453125 0 L 2.453125 -17.875 L 7.359375 -17.875 C 9.546875 -17.875 11.160156 -17.453125 12.203125 -16.609375 C 13.253906 -15.765625 13.78125 -14.503906 13.78125 -12.828125 C 13.78125 -10.460938 12.582031 -8.863281 10.1875 -8.03125 L 15.046875 0 L 12.59375 0 L 8.265625 -7.4375 Z M 4.53125 -9.21875 L 7.375 -9.21875 C 8.84375 -9.21875 9.921875 -9.507812 10.609375 -10.09375 C 11.296875 -10.675781 11.640625 -11.550781 11.640625 -12.71875 C 11.640625 -13.894531 11.289062 -14.742188 10.59375 -15.265625 C 9.894531 -15.785156 8.773438 -16.046875 7.234375 -16.046875 L 4.53125 -16.046875 Z M 4.53125 -9.21875 "/></g></g></g><g fill="#ffffff" fill-opacity="1"><g transform="translate(138.854379, 346.704651)"><g><path d="M 13.6875 0 L 11.46875 -5.6875 L 4.296875 -5.6875 L 2.109375 0 L 0 0 L 7.0625 -17.9375 L 8.8125 -17.9375 L 15.84375 0 Z M 10.8125 -7.546875 L 8.734375 -13.09375 C 8.460938 -13.789062 8.1875 -14.648438 7.90625 -15.671875 C 7.726562 -14.890625 7.472656 -14.03125 7.140625 -13.09375 L 5.03125 -7.546875 Z M 10.8125 -7.546875 "/></g></g></g><g fill="#ffffff" fill-opacity="1"><g transform="translate(172.122857, 346.704651)"><g><path d="M 13.6875 0 L 11.46875 -5.6875 L 4.296875 -5.6875 L 2.109375 0 L 0 0 L 7.0625 -17.9375 L 8.8125 -17.9375 L 15.84375 0 Z M 10.8125 -7.546875 L 8.734375 -13.09375 C 8.460938 -13.789062 8.1875 -14.648438 7.90625 -15.671875 C 7.726562 -14.890625 7.472656 -14.03125 7.140625 -13.09375 L 5.03125 -7.546875 Z M 10.8125 -7.546875 "/></g></g></g><g fill="#ffffff" fill-opacity="1"><g transform="translate(205.391331, 346.704651)"><g><path d="M 7.953125 0 L 5.875 0 L 5.875 -16.015625 L 0.21875 -16.015625 L 0.21875 -17.875 L 13.609375 -17.875 L 13.609375 -16.015625 L 7.953125 -16.015625 Z M 7.953125 0 "/></g></g></g><g fill="#ffffff" fill-opacity="1"><g transform="translate(236.667755, 346.704651)"><g><path d="M 12.546875 -4.75 C 12.546875 -3.175781 11.972656 -1.945312 10.828125 -1.0625 C 9.691406 -0.1875 8.144531 0.25 6.1875 0.25 C 4.0625 0.25 2.429688 -0.0234375 1.296875 -0.578125 L 1.296875 -2.578125 C 2.023438 -2.265625 2.820312 -2.019531 3.6875 -1.84375 C 4.550781 -1.664062 5.410156 -1.578125 6.265625 -1.578125 C 7.640625 -1.578125 8.675781 -1.835938 9.375 -2.359375 C 10.082031 -2.890625 10.4375 -3.625 10.4375 -4.5625 C 10.4375 -5.175781 10.3125 -5.679688 10.0625 -6.078125 C 9.8125 -6.472656 9.394531 -6.835938 8.8125 -7.171875 C 8.226562 -7.503906 7.34375 -7.882812 6.15625 -8.3125 C 4.5 -8.90625 3.3125 -9.609375 2.59375 -10.421875 C 1.882812 -11.234375 1.53125 -12.296875 1.53125 -13.609375 C 1.53125 -14.992188 2.046875 -16.09375 3.078125 -16.90625 C 4.109375 -17.71875 5.476562 -18.125 7.1875 -18.125 C 8.957031 -18.125 10.59375 -17.796875 12.09375 -17.140625 L 11.4375 -15.34375 C 9.96875 -15.957031 8.535156 -16.265625 7.140625 -16.265625 C 6.035156 -16.265625 5.171875 -16.023438 4.546875 -15.546875 C 3.929688 -15.078125 3.625 -14.425781 3.625 -13.59375 C 3.625 -12.96875 3.738281 -12.457031 3.96875 -12.0625 C 4.195312 -11.675781 4.582031 -11.316406 5.125 -10.984375 C 5.664062 -10.648438 6.492188 -10.285156 7.609375 -9.890625 C 9.484375 -9.222656 10.773438 -8.503906 11.484375 -7.734375 C 12.191406 -6.972656 12.546875 -5.976562 12.546875 -4.75 Z M 12.546875 -4.75 "/></g></g></g></svg>